# MagicaVoxel @ Ephtracy

# group
o 

# material
mtllib Koala_D.mtl
usemtl palette

# normals
vn -1 0 0
vn 1 0 0
vn 0 0 1
vn 0 0 -1
vn 0 -1 0
vn 0 1 0

# texcoords
vt 0.974609 0.5
vt 0.986328 0.5

# verts
v 0.7 0.2 -0.2
v 0.7 0.2 -0.3
v 0.7 0.3 -0.3
v 0.7 0.3 -0.4
v 0.7 0.4 -0.2
v 0.7 0.4 -0.3
v 0.7 0.5 -0.2
v 0.7 0.5 -0.3
v 0.7 0.5 -0.4
v 0.7 0.5 -0.5
v 0.7 0.6 -0.3
v 0.7 0.6 -0.5
v 0.7 0.7 -0.5
v 0.7 0.7 -0.6
v 0.7 0.8 -0.2
v 0.7 0.8 -0.3
v 0.7 0.8 -0.4
v 0.7 0.9 -0.4
v 0.7 0.9 -0.6
v 0.8 0.2 -0.1
v 0.8 0.2 -0.2
v 0.8 0.2 -0.3
v 0.8 0.2 -0.7
v 0.8 0.3 -0.1
v 0.8 0.3 -0.2
v 0.8 0.3 -0.3
v 0.8 0.3 -0.4
v 0.8 0.4 -0.1
v 0.8 0.4 -0.2
v 0.8 0.4 -0.7
v 0.8 0.4 -0.9
v 0.8 0.5 -0.1
v 0.8 0.5 -0.2
v 0.8 0.5 -0.4
v 0.8 0.5 -0.5
v 0.8 0.6 -0.5
v 0.8 0.6 -0.6
v 0.8 0.7 -0.5
v 0.8 0.7 -0.6
v 0.8 0.7 -0.8
v 0.8 0.8 -0.1
v 0.8 0.8 -0.2
v 0.8 0.8 -0.8
v 0.8 0.8 -0.9
v 0.9 0.2 2.23517e-008
v 0.9 0.2 -0.1
v 0.9 0.3 -0.1
v 0.9 0.4 2.23517e-008
v 0.9 0.4 -0.1
v 0.9 0.5 -0.1
v 0.9 0.8 2.23517e-008
v 0.9 0.8 -0.1
v 0.9 0.7 -0.8
v 0.9 0.7 -0.9
v 0.9 0.8 -0.4
v 0.9 0.8 -0.5
v 0.9 0.8 -0.8
v 0.9 0.8 -0.9
v 0.9 0.9 -0.4
v 0.9 0.9 -0.5
v 1 0.2 2.23517e-008
v 1 0.2 -0.7
v 1 0.3 -0.1
v 1 0.3 -0.2
v 1 0.4 2.23517e-008
v 1 0.4 -0.1
v 1 0.4 -0.2
v 1 0.4 -0.3
v 1 0.4 -0.7
v 1 0.4 -0.9
v 1 0.5 -0.1
v 1 0.5 -0.2
v 1 0.5 -0.3
v 1 0.6 -0.3
v 1 0.6 -0.6
v 1 0.7 -0.6
v 1 0.7 -0.9
v 1 0.8 2.23517e-008
v 1 0.8 -0.2
v 1 0.8 -0.3
v 1 0.8 -0.5
v 1 0.9 -0.5
v 1 0.9 -0.6
v 0.9 0.2 2.23517e-008
v 0.9 0.4 2.23517e-008
v 0.9 0.8 2.23517e-008
v 1 0.2 2.23517e-008
v 1 0.4 2.23517e-008
v 1 0.8 2.23517e-008
v 0.8 0.2 -0.1
v 0.8 0.3 -0.1
v 0.8 0.4 -0.1
v 0.8 0.5 -0.1
v 0.8 0.8 -0.1
v 0.9 0.2 -0.1
v 0.9 0.3 -0.1
v 0.9 0.4 -0.1
v 0.9 0.5 -0.1
v 0.9 0.8 -0.1
v 0.7 0.2 -0.2
v 0.7 0.4 -0.2
v 0.7 0.5 -0.2
v 0.7 0.8 -0.2
v 0.8 0.2 -0.2
v 0.8 0.3 -0.2
v 0.8 0.4 -0.2
v 0.8 0.5 -0.2
v 0.8 0.8 -0.2
v 0.7 0.8 -0.4
v 0.7 0.9 -0.4
v 0.9 0.8 -0.4
v 0.9 0.9 -0.4
v 0.9 0.8 -0.5
v 0.9 0.9 -0.5
v 1 0.8 -0.5
v 1 0.9 -0.5
v 0.8 0.7 -0.8
v 0.8 0.8 -0.8
v 0.9 0.7 -0.8
v 0.9 0.8 -0.8
v 0.7 0.2 -0.3
v 0.7 0.3 -0.3
v 0.8 0.2 -0.3
v 0.8 0.3 -0.3
v 0.7 0.3 -0.4
v 0.7 0.5 -0.4
v 0.8 0.3 -0.4
v 0.8 0.5 -0.4
v 0.7 0.5 -0.5
v 0.7 0.6 -0.5
v 0.7 0.7 -0.5
v 0.8 0.5 -0.5
v 0.8 0.6 -0.5
v 0.8 0.7 -0.5
v 0.7 0.7 -0.6
v 0.7 0.9 -0.6
v 0.8 0.7 -0.6
v 1 0.7 -0.6
v 1 0.9 -0.6
v 0.8 0.2 -0.7
v 0.8 0.4 -0.7
v 1 0.2 -0.7
v 1 0.4 -0.7
v 0.8 0.4 -0.9
v 0.8 0.8 -0.9
v 0.9 0.7 -0.9
v 0.9 0.8 -0.9
v 1 0.4 -0.9
v 1 0.7 -0.9
v 0.9 0.2 2.23517e-008
v 1 0.2 2.23517e-008
v 0.8 0.2 -0.1
v 0.9 0.2 -0.1
v 0.7 0.2 -0.2
v 0.8 0.2 -0.2
v 0.7 0.2 -0.3
v 0.8 0.2 -0.3
v 0.8 0.2 -0.7
v 1 0.2 -0.7
v 0.7 0.3 -0.3
v 0.8 0.3 -0.3
v 0.7 0.3 -0.4
v 0.8 0.3 -0.4
v 0.8 0.4 -0.7
v 1 0.4 -0.7
v 0.8 0.4 -0.9
v 1 0.4 -0.9
v 0.7 0.5 -0.4
v 0.8 0.5 -0.4
v 0.7 0.5 -0.5
v 0.8 0.5 -0.5
v 0.7 0.7 -0.5
v 0.8 0.7 -0.5
v 0.7 0.7 -0.6
v 0.8 0.7 -0.6
v 0.8 0.7 -0.6
v 1 0.7 -0.6
v 0.8 0.7 -0.8
v 0.9 0.7 -0.8
v 0.9 0.7 -0.9
v 1 0.7 -0.9
v 0.9 0.8 2.23517e-008
v 1 0.8 2.23517e-008
v 0.8 0.8 -0.1
v 0.9 0.8 -0.1
v 0.7 0.8 -0.2
v 0.8 0.8 -0.2
v 1 0.8 -0.2
v 0.7 0.8 -0.3
v 1 0.8 -0.3
v 0.7 0.8 -0.4
v 0.9 0.8 -0.4
v 0.9 0.8 -0.5
v 1 0.8 -0.5
v 0.8 0.8 -0.8
v 0.9 0.8 -0.8
v 0.8 0.8 -0.9
v 0.9 0.8 -0.9
v 0.7 0.9 -0.4
v 0.9 0.9 -0.4
v 0.9 0.9 -0.5
v 1 0.9 -0.5
v 0.7 0.9 -0.6
v 1 0.9 -0.6

# faces
f 3/1/1 2/1/1 1/1/1
f 5/1/1 3/1/1 1/1/1
f 5/1/1 4/1/1 3/1/1
f 6/1/1 4/1/1 5/1/1
f 7/2/1 6/2/1 5/2/1
f 8/1/1 4/1/1 6/1/1
f 8/2/1 6/2/1 7/2/1
f 9/1/1 4/1/1 8/1/1
f 11/1/1 8/1/1 7/1/1
f 11/1/1 10/1/1 9/1/1
f 11/1/1 9/1/1 8/1/1
f 12/1/1 10/1/1 11/1/1
f 13/2/1 12/2/1 11/2/1
f 15/1/1 11/1/1 7/1/1
f 16/2/1 14/2/1 13/2/1
f 16/1/1 11/1/1 15/1/1
f 16/2/1 13/2/1 11/2/1
f 17/2/1 14/2/1 16/2/1
f 18/2/1 14/2/1 17/2/1
f 19/2/1 14/2/1 18/2/1
f 24/1/1 21/1/1 20/1/1
f 25/1/1 21/1/1 24/1/1
f 26/1/1 23/1/1 22/1/1
f 27/1/1 23/1/1 26/1/1
f 28/2/1 25/2/1 24/2/1
f 29/2/1 25/2/1 28/2/1
f 30/1/1 23/1/1 27/1/1
f 32/1/1 29/1/1 28/1/1
f 33/1/1 29/1/1 32/1/1
f 34/1/1 31/1/1 30/1/1
f 34/1/1 30/1/1 27/1/1
f 35/1/1 31/1/1 34/1/1
f 36/1/1 31/1/1 35/1/1
f 37/1/1 31/1/1 36/1/1
f 38/2/1 37/2/1 36/2/1
f 39/1/1 31/1/1 37/1/1
f 39/2/1 37/2/1 38/2/1
f 40/1/1 31/1/1 39/1/1
f 41/2/1 33/2/1 32/2/1
f 42/2/1 33/2/1 41/2/1
f 43/1/1 31/1/1 40/1/1
f 44/1/1 31/1/1 43/1/1
f 47/1/1 46/1/1 45/1/1
f 48/1/1 47/1/1 45/1/1
f 49/1/1 47/1/1 48/1/1
f 50/2/1 49/2/1 48/2/1
f 51/2/1 50/2/1 48/2/1
f 52/2/1 50/2/1 51/2/1
f 53/1/2 54/1/2 57/1/2
f 57/1/2 54/1/2 58/1/2
f 55/2/2 56/2/2 59/2/2
f 59/2/2 56/2/2 60/2/2
f 61/1/2 62/1/2 63/1/2
f 63/1/2 62/1/2 64/1/2
f 61/1/2 63/1/2 65/1/2
f 63/2/2 64/2/2 66/2/2
f 65/1/2 63/1/2 66/1/2
f 64/1/2 62/1/2 67/1/2
f 66/2/2 64/2/2 67/2/2
f 67/1/2 62/1/2 68/1/2
f 68/1/2 62/1/2 69/1/2
f 65/2/2 66/2/2 71/2/2
f 66/1/2 67/1/2 71/1/2
f 67/2/2 68/2/2 72/2/2
f 71/1/2 67/1/2 72/1/2
f 69/1/2 70/1/2 73/1/2
f 72/2/2 68/2/2 73/2/2
f 68/1/2 69/1/2 73/1/2
f 72/1/2 73/1/2 74/1/2
f 73/1/2 70/1/2 74/1/2
f 74/1/2 70/1/2 75/1/2
f 74/2/2 75/2/2 76/2/2
f 75/1/2 70/1/2 76/1/2
f 76/1/2 70/1/2 77/1/2
f 71/2/2 72/2/2 78/2/2
f 65/2/2 71/2/2 78/2/2
f 72/1/2 74/1/2 79/1/2
f 78/2/2 72/2/2 79/2/2
f 74/2/2 76/2/2 80/2/2
f 79/1/2 74/1/2 80/1/2
f 80/2/2 76/2/2 81/2/2
f 81/2/2 76/2/2 82/2/2
f 82/2/2 76/2/2 83/2/2
f 87/1/3 85/1/3 84/1/3
f 88/2/3 86/2/3 85/2/3
f 88/1/3 85/1/3 87/1/3
f 89/2/3 86/2/3 88/2/3
f 95/1/3 91/1/3 90/1/3
f 96/2/3 92/2/3 91/2/3
f 96/1/3 91/1/3 95/1/3
f 97/1/3 93/1/3 92/1/3
f 97/2/3 92/2/3 96/2/3
f 98/2/3 94/2/3 93/2/3
f 98/1/3 93/1/3 97/1/3
f 99/2/3 94/2/3 98/2/3
f 104/1/3 101/1/3 100/1/3
f 105/1/3 101/1/3 104/1/3
f 106/2/3 102/2/3 101/2/3
f 106/1/3 101/1/3 105/1/3
f 107/1/3 103/1/3 102/1/3
f 107/2/3 102/2/3 106/2/3
f 108/1/3 103/1/3 107/1/3
f 111/2/3 110/2/3 109/2/3
f 112/2/3 110/2/3 111/2/3
f 115/2/3 114/2/3 113/2/3
f 116/2/3 114/2/3 115/2/3
f 119/1/3 118/1/3 117/1/3
f 120/1/3 118/1/3 119/1/3
f 121/1/4 122/1/4 123/1/4
f 123/1/4 122/1/4 124/1/4
f 125/1/4 126/1/4 127/1/4
f 127/1/4 126/1/4 128/1/4
f 129/1/4 130/1/4 132/1/4
f 130/2/4 131/2/4 133/2/4
f 132/1/4 130/1/4 133/1/4
f 133/2/4 131/2/4 134/2/4
f 135/2/4 136/2/4 137/2/4
f 137/2/4 136/2/4 138/2/4
f 138/2/4 136/2/4 139/2/4
f 140/1/4 141/1/4 142/1/4
f 142/1/4 141/1/4 143/1/4
f 144/1/4 145/1/4 146/1/4
f 146/1/4 145/1/4 147/1/4
f 144/1/4 146/1/4 148/1/4
f 148/1/4 146/1/4 149/1/4
f 153/1/5 151/1/5 150/1/5
f 155/1/5 153/1/5 152/1/5
f 156/1/5 155/1/5 154/1/5
f 157/1/5 153/1/5 155/1/5
f 157/1/5 155/1/5 156/1/5
f 158/1/5 153/1/5 157/1/5
f 159/1/5 151/1/5 153/1/5
f 159/1/5 153/1/5 158/1/5
f 162/1/5 161/1/5 160/1/5
f 163/1/5 161/1/5 162/1/5
f 166/1/5 165/1/5 164/1/5
f 167/1/5 165/1/5 166/1/5
f 170/1/5 169/1/5 168/1/5
f 171/1/5 169/1/5 170/1/5
f 174/2/5 173/2/5 172/2/5
f 175/2/5 173/2/5 174/2/5
f 176/1/6 177/1/6 178/1/6
f 178/1/6 177/1/6 179/1/6
f 179/1/6 177/1/6 180/1/6
f 180/1/6 177/1/6 181/1/6
f 182/2/6 183/2/6 185/2/6
f 184/2/6 185/2/6 187/2/6
f 185/2/6 183/2/6 188/2/6
f 187/2/6 185/2/6 188/2/6
f 186/1/6 187/1/6 189/1/6
f 187/1/6 188/1/6 189/1/6
f 189/1/6 188/1/6 190/1/6
f 189/2/6 190/2/6 191/2/6
f 191/2/6 190/2/6 192/2/6
f 192/2/6 190/2/6 193/2/6
f 193/2/6 190/2/6 194/2/6
f 195/1/6 196/1/6 197/1/6
f 197/1/6 196/1/6 198/1/6
f 199/2/6 200/2/6 201/2/6
f 199/2/6 201/2/6 203/2/6
f 201/2/6 202/2/6 203/2/6
f 203/2/6 202/2/6 204/2/6
