# MagicaVoxel @ Ephtracy

# group
o 

# material
mtllib Koala_M.mtl
usemtl palette

# normals
vn -1 0 0
vn 1 0 0
vn 0 0 1
vn 0 0 -1
vn 0 -1 0
vn 0 1 0

# texcoords
vt 0.966797 0.5
vt 0.974609 0.5
vt 0.986328 0.5

# verts
v 0.4 1.2 0.7
v 0.4 1.2 0.6
v 0.4 1.3 1.1
v 0.4 1.3 1
v 0.4 1.3 0.7
v 0.4 1.5 1
v 0.4 1.5 0.8
v 0.4 1.6 1.1
v 0.4 1.6 0.9
v 0.4 1.6 0.8
v 0.4 1.6 0.6
v 0.4 1.8 0.9
v 0.4 1.8 0.6
v 0.9 1 1.1
v 0.9 1 0.9
v 0.9 1.2 1.1
v 0.9 1.2 1
v 0.9 1.2 0.9
v 0.9 1.3 1.1
v 0.9 1.3 1
v 0.9 1.3 0.9
v 0.6 1.2 0.7
v 0.6 1.2 0.6
v 0.6 1.3 0.7
v 0.6 1.6 0.7
v 0.6 1.6 0.6
v 0.6 1.8 0.7
v 0.6 1.8 0.6
v 0.9 1.3 0.9
v 0.9 1.3 0.7
v 0.9 1.4 0.9
v 0.9 1.4 0.8
v 0.9 1.5 0.8
v 0.9 1.6 0.8
v 0.9 1.6 0.7
v 0.9 1.8 0.8
v 0.9 1.8 0.7
v 1 1 1.1
v 1 1 0.9
v 1 1.2 1.1
v 1 1.2 1
v 1 1.2 0.9
v 1 1.4 0.9
v 1 1.4 0.8
v 1 1.5 1
v 1 1.5 0.8
v 1 1.6 1.1
v 1 1.6 0.9
v 1 1.8 0.9
v 1 1.8 0.8
v 0.4 1.3 1.1
v 0.4 1.6 1.1
v 0.9 1 1.1
v 0.9 1.2 1.1
v 0.9 1.3 1.1
v 1 1 1.1
v 1 1.2 1.1
v 1 1.6 1.1
v 0.4 1.6 0.9
v 0.4 1.8 0.9
v 1 1.6 0.9
v 1 1.8 0.9
v 0.4 1.2 0.7
v 0.4 1.3 0.7
v 0.6 1.2 0.7
v 0.6 1.3 0.7
v 0.9 1 0.9
v 0.9 1.2 0.9
v 0.9 1.3 0.9
v 0.9 1.4 0.9
v 1 1 0.9
v 1 1.2 0.9
v 1 1.4 0.9
v 0.9 1.4 0.8
v 0.9 1.5 0.8
v 0.9 1.6 0.8
v 0.9 1.8 0.8
v 1 1.4 0.8
v 1 1.5 0.8
v 1 1.8 0.8
v 0.6 1.3 0.7
v 0.6 1.6 0.7
v 0.6 1.8 0.7
v 0.9 1.3 0.7
v 0.9 1.6 0.7
v 0.9 1.8 0.7
v 0.4 1.2 0.6
v 0.4 1.6 0.6
v 0.4 1.8 0.6
v 0.6 1.2 0.6
v 0.6 1.6 0.6
v 0.6 1.8 0.6
v 0.9 1 1.1
v 1 1 1.1
v 0.9 1 0.9
v 1 1 0.9
v 0.4 1.2 0.7
v 0.6 1.2 0.7
v 0.4 1.2 0.6
v 0.6 1.2 0.6
v 0.4 1.3 1.1
v 0.9 1.3 1.1
v 0.4 1.3 1
v 0.9 1.3 1
v 0.9 1.3 0.9
v 0.4 1.3 0.7
v 0.6 1.3 0.7
v 0.9 1.3 0.7
v 0.9 1.4 0.9
v 1 1.4 0.9
v 0.9 1.4 0.8
v 1 1.4 0.8
v 0.4 1.6 1.1
v 1 1.6 1.1
v 0.4 1.6 0.9
v 1 1.6 0.9
v 0.4 1.8 0.9
v 1 1.8 0.9
v 0.9 1.8 0.8
v 1 1.8 0.8
v 0.6 1.8 0.7
v 0.9 1.8 0.7
v 0.4 1.8 0.6
v 0.6 1.8 0.6

# faces
f 5/3/1 2/3/1 1/3/1
f 6/2/1 4/2/1 3/2/1
f 6/3/1 5/3/1 4/3/1
f 7/3/1 5/3/1 6/3/1
f 8/2/1 6/2/1 3/2/1
f 8/2/1 7/2/1 6/2/1
f 9/2/1 7/2/1 8/2/1
f 10/3/1 5/3/1 7/3/1
f 10/2/1 7/2/1 9/2/1
f 11/3/1 2/3/1 5/3/1
f 11/3/1 5/3/1 10/3/1
f 12/2/1 10/2/1 9/2/1
f 12/2/1 11/2/1 10/2/1
f 13/2/1 11/2/1 12/2/1
f 16/1/1 15/1/1 14/1/1
f 17/1/1 15/1/1 16/1/1
f 18/1/1 15/1/1 17/1/1
f 19/2/1 17/2/1 16/2/1
f 20/3/1 18/3/1 17/3/1
f 20/2/1 17/2/1 19/2/1
f 21/3/1 18/3/1 20/3/1
f 22/3/2 23/3/2 24/3/2
f 24/3/2 23/3/2 25/3/2
f 25/3/2 23/3/2 26/3/2
f 25/2/2 26/2/2 27/2/2
f 27/2/2 26/2/2 28/2/2
f 29/3/2 30/3/2 31/3/2
f 31/3/2 30/3/2 32/3/2
f 32/3/2 30/3/2 33/3/2
f 33/3/2 30/3/2 34/3/2
f 34/3/2 30/3/2 35/3/2
f 34/2/2 35/2/2 36/2/2
f 36/2/2 35/2/2 37/2/2
f 38/1/2 39/1/2 40/1/2
f 40/1/2 39/1/2 41/1/2
f 41/1/2 39/1/2 42/1/2
f 41/3/2 42/3/2 43/3/2
f 40/2/2 41/2/2 45/2/2
f 43/3/2 44/3/2 45/3/2
f 41/3/2 43/3/2 45/3/2
f 45/3/2 44/3/2 46/3/2
f 40/2/2 45/2/2 47/2/2
f 45/2/2 46/2/2 47/2/2
f 47/2/2 46/2/2 48/2/2
f 48/2/2 46/2/2 49/2/2
f 49/2/2 46/2/2 50/2/2
f 55/2/3 52/2/3 51/2/3
f 56/1/3 54/1/3 53/1/3
f 57/2/3 55/2/3 54/2/3
f 57/1/3 54/1/3 56/1/3
f 58/2/3 52/2/3 55/2/3
f 58/2/3 55/2/3 57/2/3
f 61/2/3 60/2/3 59/2/3
f 62/2/3 60/2/3 61/2/3
f 65/3/3 64/3/3 63/3/3
f 66/3/3 64/3/3 65/3/3
f 67/1/4 68/1/4 71/1/4
f 69/3/4 70/3/4 72/3/4
f 71/1/4 68/1/4 72/1/4
f 68/3/4 69/3/4 72/3/4
f 72/3/4 70/3/4 73/3/4
f 74/3/4 75/3/4 78/3/4
f 76/2/4 77/2/4 79/2/4
f 78/3/4 75/3/4 79/3/4
f 75/2/4 76/2/4 79/2/4
f 79/2/4 77/2/4 80/2/4
f 81/3/4 82/3/4 84/3/4
f 82/2/4 83/2/4 85/2/4
f 84/3/4 82/3/4 85/3/4
f 85/2/4 83/2/4 86/2/4
f 87/3/4 88/3/4 90/3/4
f 88/2/4 89/2/4 91/2/4
f 90/3/4 88/3/4 91/3/4
f 91/2/4 89/2/4 92/2/4
f 95/1/5 94/1/5 93/1/5
f 96/1/5 94/1/5 95/1/5
f 99/3/5 98/3/5 97/3/5
f 100/3/5 98/3/5 99/3/5
f 103/2/5 102/2/5 101/2/5
f 104/2/5 102/2/5 103/2/5
f 105/3/5 104/3/5 103/3/5
f 106/3/5 105/3/5 103/3/5
f 107/3/5 105/3/5 106/3/5
f 108/3/5 105/3/5 107/3/5
f 111/3/5 110/3/5 109/3/5
f 112/3/5 110/3/5 111/3/5
f 113/2/6 114/2/6 115/2/6
f 115/2/6 114/2/6 116/2/6
f 117/2/6 118/2/6 119/2/6
f 119/2/6 118/2/6 120/2/6
f 117/2/6 119/2/6 121/2/6
f 121/2/6 119/2/6 122/2/6
f 117/2/6 121/2/6 123/2/6
f 123/2/6 121/2/6 124/2/6
