# MagicaVoxel @ Ephtracy

# group
o 

# material
mtllib Koala_J.mtl
usemtl palette

# normals
vn -1 0 0
vn 1 0 0
vn 0 0 1
vn 0 0 -1
vn 0 -1 0
vn 0 1 0

# texcoords
vt 0.966797 0.5
vt 0.974609 0.5
vt 0.986328 0.5

# verts
v 0.4 0.6 0.9
v 0.4 0.6 0.6
v 0.4 0.6 0.3
v 0.4 0.6 0.2
v 0.4 0.8 0.2
v 0.4 0.8 0
v 0.4 0.9 0.7
v 0.4 0.9 0.6
v 0.4 0.9 0.2
v 0.4 0.9 0.1
v 0.4 1 1.1
v 0.4 1 0.9
v 0.4 1 0.7
v 0.4 1 0.3
v 0.4 1 0.1
v 0.4 1 0
v 0.4 1.1 0.9
v 0.4 1.1 0.8
v 0.4 1.1 0.6
v 0.4 1.1 0.1
v 0.4 1.1 0
v 0.4 1.2 1.1
v 0.4 1.2 1
v 0.4 1.2 0.9
v 0.4 1.2 0.7
v 0.4 1.2 0.6
v 0.4 1.2 0.1
v 0.4 1.3 1.1
v 0.4 1.3 1
v 0.4 1.3 0.9
v 0.4 1.3 0.8
v 0.4 1.3 0.7
v 0.6 0.6 0.2
v 0.6 0.6 0.1
v 0.6 0.7 0.2
v 0.6 0.7 0.1
v 0.7 0.7 0.2
v 0.7 0.7 0.1
v 0.7 0.9 0.2
v 0.7 0.9 0.1
v 0.5 0.8 0.2
v 0.5 0.8 0
v 0.5 0.9 0.2
v 0.5 0.9 0.1
v 0.5 0.9 0
v 0.6 0.9 0.1
v 0.6 0.9 0
v 0.6 1 0.1
v 0.6 1 0
v 0.6 1.1 0.1
v 0.6 1.1 0
v 0.9 0.6 0.9
v 0.9 0.6 0.6
v 0.9 0.6 0.3
v 0.9 0.6 0.2
v 0.9 0.6 0.1
v 0.9 0.9 0.7
v 0.9 0.9 0.6
v 0.9 0.9 0.2
v 0.9 0.9 0.1
v 0.9 1 1.1
v 0.9 1 0.9
v 0.9 1 0.7
v 0.9 1 0.3
v 0.9 1.1 0.9
v 0.9 1.1 0.8
v 0.9 1.1 0.6
v 0.9 1.2 1.1
v 0.9 1.2 1
v 0.9 1.2 0.9
v 0.9 1.2 0.7
v 0.9 1.2 0.6
v 0.9 1.2 0.1
v 0.9 1.3 1.1
v 0.9 1.3 1
v 0.9 1.3 0.9
v 0.9 1.3 0.8
v 0.9 1.3 0.7
v 0.4 1 1.1
v 0.4 1.2 1.1
v 0.4 1.3 1.1
v 0.9 1 1.1
v 0.9 1.2 1.1
v 0.9 1.3 1.1
v 0.4 0.6 0.9
v 0.4 1 0.9
v 0.9 0.6 0.9
v 0.9 1 0.9
v 0.4 1.2 0.7
v 0.4 1.3 0.7
v 0.9 1.2 0.7
v 0.9 1.3 0.7
v 0.4 0.6 0.2
v 0.4 0.8 0.2
v 0.5 0.8 0.2
v 0.5 0.9 0.2
v 0.6 0.6 0.2
v 0.6 0.7 0.2
v 0.7 0.7 0.2
v 0.7 0.9 0.2
v 0.4 1.1 0.1
v 0.4 1.2 0.1
v 0.6 0.6 0.1
v 0.6 0.7 0.1
v 0.6 0.9 0.1
v 0.6 1 0.1
v 0.6 1.1 0.1
v 0.7 0.7 0.1
v 0.7 0.9 0.1
v 0.9 0.6 0.1
v 0.9 0.9 0.1
v 0.9 1.2 0.1
v 0.4 0.8 0
v 0.4 1 0
v 0.4 1.1 0
v 0.5 0.8 0
v 0.5 0.9 0
v 0.6 0.9 0
v 0.6 1 0
v 0.6 1.1 0
v 0.4 0.6 0.9
v 0.9 0.6 0.9
v 0.4 0.6 0.6
v 0.9 0.6 0.6
v 0.4 0.6 0.3
v 0.9 0.6 0.3
v 0.4 0.6 0.2
v 0.6 0.6 0.2
v 0.9 0.6 0.2
v 0.6 0.6 0.1
v 0.9 0.6 0.1
v 0.4 0.8 0.2
v 0.5 0.8 0.2
v 0.4 0.8 0
v 0.5 0.8 0
v 0.5 0.9 0.2
v 0.7 0.9 0.2
v 0.5 0.9 0.1
v 0.6 0.9 0.1
v 0.7 0.9 0.1
v 0.5 0.9 0
v 0.6 0.9 0
v 0.4 1 1.1
v 0.9 1 1.1
v 0.4 1 0.9
v 0.9 1 0.9
v 0.6 0.7 0.2
v 0.7 0.7 0.2
v 0.6 0.7 0.1
v 0.7 0.7 0.1
v 0.4 1.1 0.1
v 0.6 1.1 0.1
v 0.4 1.1 0
v 0.6 1.1 0
v 0.4 1.2 0.7
v 0.9 1.2 0.7
v 0.4 1.2 0.6
v 0.9 1.2 0.6
v 0.4 1.2 0.1
v 0.9 1.2 0.1
v 0.4 1.3 1.1
v 0.9 1.3 1.1
v 0.4 1.3 1
v 0.9 1.3 1
v 0.4 1.3 0.9
v 0.9 1.3 0.9
v 0.4 1.3 0.8
v 0.9 1.3 0.8
v 0.4 1.3 0.7
v 0.9 1.3 0.7

# faces
f 5/2/1 4/2/1 3/2/1
f 7/2/1 2/2/1 1/2/1
f 8/3/1 3/3/1 2/3/1
f 8/2/1 2/2/1 7/2/1
f 9/3/1 6/3/1 5/3/1
f 9/2/1 5/2/1 3/2/1
f 10/3/1 6/3/1 9/3/1
f 12/2/1 7/2/1 1/2/1
f 13/3/1 8/3/1 7/3/1
f 13/2/1 7/2/1 12/2/1
f 14/3/1 3/3/1 8/3/1
f 14/3/1 8/3/1 13/3/1
f 14/2/1 9/2/1 3/2/1
f 14/2/1 10/2/1 9/2/1
f 15/3/1 6/3/1 10/3/1
f 15/2/1 10/2/1 14/2/1
f 16/3/1 6/3/1 15/3/1
f 17/2/1 13/2/1 12/2/1
f 17/2/1 14/2/1 13/2/1
f 17/2/1 16/2/1 15/2/1
f 17/2/1 15/2/1 14/2/1
f 17/1/1 12/1/1 11/1/1
f 18/2/1 16/2/1 17/2/1
f 19/2/1 16/2/1 18/2/1
f 20/2/1 16/2/1 19/2/1
f 21/2/1 16/2/1 20/2/1
f 22/1/1 17/1/1 11/1/1
f 22/1/1 18/1/1 17/1/1
f 23/1/1 18/1/1 22/1/1
f 24/1/1 18/1/1 23/1/1
f 25/3/1 19/3/1 18/3/1
f 26/2/1 20/2/1 19/2/1
f 26/3/1 19/3/1 25/3/1
f 27/2/1 20/2/1 26/2/1
f 28/2/1 23/2/1 22/2/1
f 29/3/1 24/3/1 23/3/1
f 29/2/1 23/2/1 28/2/1
f 30/1/1 18/1/1 24/1/1
f 30/3/1 24/3/1 29/3/1
f 31/3/1 25/3/1 18/3/1
f 31/1/1 18/1/1 30/1/1
f 32/3/1 25/3/1 31/3/1
f 35/3/1 34/3/1 33/3/1
f 36/3/1 34/3/1 35/3/1
f 39/3/1 38/3/1 37/3/1
f 40/3/1 38/3/1 39/3/1
f 41/3/2 42/3/2 43/3/2
f 43/3/2 42/3/2 44/3/2
f 44/3/2 42/3/2 45/3/2
f 46/3/2 47/3/2 48/3/2
f 48/3/2 47/3/2 49/3/2
f 48/2/2 49/2/2 50/2/2
f 50/2/2 49/2/2 51/2/2
f 52/2/2 53/2/2 57/2/2
f 53/3/2 54/3/2 58/3/2
f 57/2/2 53/2/2 58/2/2
f 55/3/2 56/3/2 59/3/2
f 54/2/2 55/2/2 59/2/2
f 59/3/2 56/3/2 60/3/2
f 52/2/2 57/2/2 62/2/2
f 57/3/2 58/3/2 63/3/2
f 62/2/2 57/2/2 63/2/2
f 58/3/2 54/3/2 64/3/2
f 63/3/2 58/3/2 64/3/2
f 54/2/2 59/2/2 64/2/2
f 59/2/2 60/2/2 64/2/2
f 62/2/2 63/2/2 65/2/2
f 61/1/2 62/1/2 65/1/2
f 63/2/2 64/2/2 65/2/2
f 65/2/2 64/2/2 66/2/2
f 66/2/2 64/2/2 67/2/2
f 61/1/2 65/1/2 68/1/2
f 65/1/2 66/1/2 68/1/2
f 68/1/2 66/1/2 69/1/2
f 69/1/2 66/1/2 70/1/2
f 66/3/2 67/3/2 71/3/2
f 67/2/2 64/2/2 72/2/2
f 71/3/2 67/3/2 72/3/2
f 64/2/2 60/2/2 73/2/2
f 72/2/2 64/2/2 73/2/2
f 68/2/2 69/2/2 74/2/2
f 69/3/2 70/3/2 75/3/2
f 74/2/2 69/2/2 75/2/2
f 70/1/2 66/1/2 76/1/2
f 75/3/2 70/3/2 76/3/2
f 66/3/2 71/3/2 77/3/2
f 76/1/2 66/1/2 77/1/2
f 77/3/2 71/3/2 78/3/2
f 82/1/3 80/1/3 79/1/3
f 83/2/3 81/2/3 80/2/3
f 83/1/3 80/1/3 82/1/3
f 84/2/3 81/2/3 83/2/3
f 87/2/3 86/2/3 85/2/3
f 88/2/3 86/2/3 87/2/3
f 89/3/4 90/3/4 91/3/4
f 91/3/4 90/3/4 92/3/4
f 93/2/4 94/2/4 95/2/4
f 93/2/4 95/2/4 97/2/4
f 95/2/4 96/2/4 97/2/4
f 97/2/4 96/2/4 98/2/4
f 98/2/4 96/2/4 99/2/4
f 99/2/4 96/2/4 100/2/4
f 101/2/4 102/2/4 107/2/4
f 103/3/4 104/3/4 108/3/4
f 105/2/4 106/2/4 109/2/4
f 106/2/4 107/2/4 109/2/4
f 103/3/4 108/3/4 110/3/4
f 108/3/4 109/3/4 110/3/4
f 109/2/4 107/2/4 111/2/4
f 110/3/4 109/3/4 111/3/4
f 107/2/4 102/2/4 112/2/4
f 111/2/4 107/2/4 112/2/4
f 113/3/4 114/3/4 116/3/4
f 116/3/4 114/3/4 117/3/4
f 117/3/4 114/3/4 118/3/4
f 114/2/4 115/2/4 119/2/4
f 118/3/4 114/3/4 119/3/4
f 119/2/4 115/2/4 120/2/4
f 123/2/5 122/2/5 121/2/5
f 124/2/5 122/2/5 123/2/5
f 125/3/5 124/3/5 123/3/5
f 126/3/5 124/3/5 125/3/5
f 127/2/5 126/2/5 125/2/5
f 128/2/5 126/2/5 127/2/5
f 129/2/5 126/2/5 128/2/5
f 130/3/5 129/3/5 128/3/5
f 131/3/5 129/3/5 130/3/5
f 134/3/5 133/3/5 132/3/5
f 135/3/5 133/3/5 134/3/5
f 138/2/5 137/2/5 136/2/5
f 139/2/5 137/2/5 138/2/5
f 140/2/5 137/2/5 139/2/5
f 141/3/5 139/3/5 138/3/5
f 142/3/5 139/3/5 141/3/5
f 145/1/5 144/1/5 143/1/5
f 146/1/5 144/1/5 145/1/5
f 147/3/6 148/3/6 149/3/6
f 149/3/6 148/3/6 150/3/6
f 151/2/6 152/2/6 153/2/6
f 153/2/6 152/2/6 154/2/6
f 155/3/6 156/3/6 157/3/6
f 157/3/6 156/3/6 158/3/6
f 157/2/6 158/2/6 159/2/6
f 159/2/6 158/2/6 160/2/6
f 161/2/6 162/2/6 163/2/6
f 163/2/6 162/2/6 164/2/6
f 163/3/6 164/3/6 165/3/6
f 165/3/6 164/3/6 166/3/6
f 165/1/6 166/1/6 167/1/6
f 167/1/6 166/1/6 168/1/6
f 167/3/6 168/3/6 169/3/6
f 169/3/6 168/3/6 170/3/6
