# MagicaVoxel @ Ephtracy

# group
o 

# material
mtllib TV_A.mtl
usemtl palette

# normals
vn -1 0 0
vn 1 0 0
vn 0 0 1
vn 0 0 -1
vn 0 -1 0
vn 0 1 0

# texcoords
vt 0.986328 0.5
vt 0.994141 0.5

# verts
v 0.7 1.9 2
v 0.7 1.9 1.6
v 0.7 2.1 2
v 0.7 2.1 1.6
v 0.7 2.5 2
v 0.7 2.5 1.6
v 0.7 2.6 2
v 0.7 2.6 1.6
v 0.8 1.9 1.6
v 0.8 1.9 1.3
v 0.8 1.9 0.7
v 0.8 2 0.7
v 0.8 2 0.6
v 0.8 2.1 1.6
v 0.8 2.2 0.9
v 0.8 2.2 0.6
v 0.8 2.4 1.4
v 0.8 2.4 1.3
v 0.8 2.4 0.9
v 0.8 2.5 1.6
v 0.8 2.5 1.4
v 0.8 2.6 1.6
v 0.8 2.6 1.3
v 1.1 1.9 0.9
v 1.1 1.9 0.7
v 1.1 2 0.7
v 1.1 2 0.6
v 1.1 2.2 0.9
v 1.1 2.2 0.6
v 1.2 2.3 1.3
v 1.2 2.3 0.9
v 1.2 2.4 1.3
v 1.2 2.4 0.9
v 1.3 1.9 1.3
v 1.3 1.9 0.9
v 1.3 2.3 1.3
v 1.3 2.3 0.9
v 1.4 2.5 2
v 1.4 2.5 1.3
v 1.4 2.6 2
v 1.4 2.6 1.3
v 1.5 1.9 2
v 1.5 1.9 1.3
v 1.5 2.5 2
v 1.5 2.5 1.3
v 0.7 1.9 2
v 0.7 2.1 2
v 0.7 2.5 2
v 0.7 2.6 2
v 0.8 1.9 2
v 0.8 2.1 2
v 1 2 2
v 1 2.1 2
v 1.3 2 2
v 1.3 2.1 2
v 1.3 2.4 2
v 1.3 2.5 2
v 1.4 1.9 2
v 1.4 2.4 2
v 1.4 2.5 2
v 1.4 2.6 2
v 1.5 1.9 2
v 1.5 2.5 2
v 0.7 1.9 1.6
v 0.7 2.1 1.6
v 0.7 2.5 1.6
v 0.7 2.6 1.6
v 0.8 1.9 1.6
v 0.8 2.1 1.6
v 0.8 2.5 1.6
v 0.8 2.6 1.6
v 0.8 2.4 1.3
v 0.8 2.6 1.3
v 1.2 2.3 1.3
v 1.2 2.4 1.3
v 1.3 1.9 1.3
v 1.3 2.3 1.3
v 1.4 2.5 1.3
v 1.4 2.6 1.3
v 1.5 1.9 1.3
v 1.5 2.5 1.3
v 0.8 2.2 0.9
v 0.8 2.4 0.9
v 1.1 1.9 0.9
v 1.1 2.2 0.9
v 1.2 2.3 0.9
v 1.2 2.4 0.9
v 1.3 1.9 0.9
v 1.3 2.3 0.9
v 0.8 1.9 0.7
v 0.8 2 0.7
v 1.1 1.9 0.7
v 1.1 2 0.7
v 0.8 2 0.6
v 0.8 2.2 0.6
v 1.1 2 0.6
v 1.1 2.2 0.6
v 0.7 1.9 2
v 0.8 1.9 2
v 1.4 1.9 2
v 1.5 1.9 2
v 0.7 1.9 1.6
v 0.8 1.9 1.6
v 1.3 1.9 1.4
v 1.4 1.9 1.4
v 0.8 1.9 1.3
v 1.3 1.9 1.3
v 1.5 1.9 1.3
v 1.1 1.9 0.9
v 1.3 1.9 0.9
v 0.8 1.9 0.7
v 1.1 1.9 0.7
v 0.8 2 0.7
v 1.1 2 0.7
v 0.8 2 0.6
v 1.1 2 0.6
v 0.8 2.2 0.9
v 1.1 2.2 0.9
v 0.8 2.2 0.6
v 1.1 2.2 0.6
v 1.2 2.3 1.3
v 1.3 2.3 1.3
v 1.2 2.3 0.9
v 1.3 2.3 0.9
v 0.8 2.4 1.3
v 1.2 2.4 1.3
v 0.8 2.4 0.9
v 1.2 2.4 0.9
v 1.4 2.5 2
v 1.5 2.5 2
v 1.4 2.5 1.3
v 1.5 2.5 1.3
v 0.7 2.6 2
v 1.4 2.6 2
v 0.7 2.6 1.6
v 0.8 2.6 1.6
v 0.8 2.6 1.3
v 1.4 2.6 1.3

# faces
f 3/2/1 2/2/1 1/2/1
f 4/2/1 2/2/1 3/2/1
f 5/1/1 4/1/1 3/1/1
f 6/1/1 4/1/1 5/1/1
f 7/2/1 6/2/1 5/2/1
f 8/2/1 6/2/1 7/2/1
f 12/2/1 11/2/1 10/2/1
f 14/1/1 10/1/1 9/1/1
f 15/2/1 13/2/1 12/2/1
f 15/2/1 12/2/1 10/2/1
f 16/2/1 13/2/1 15/2/1
f 17/1/1 10/1/1 14/1/1
f 18/2/1 15/2/1 10/2/1
f 18/1/1 10/1/1 17/1/1
f 19/2/1 15/2/1 18/2/1
f 20/1/1 17/1/1 14/1/1
f 21/2/1 18/2/1 17/2/1
f 21/1/1 17/1/1 20/1/1
f 22/2/1 21/2/1 20/2/1
f 23/2/1 18/2/1 21/2/1
f 23/2/1 21/2/1 22/2/1
f 24/2/2 25/2/2 26/2/2
f 24/2/2 26/2/2 28/2/2
f 26/2/2 27/2/2 28/2/2
f 28/2/2 27/2/2 29/2/2
f 30/2/2 31/2/2 32/2/2
f 32/2/2 31/2/2 33/2/2
f 34/2/2 35/2/2 36/2/2
f 36/2/2 35/2/2 37/2/2
f 38/2/2 39/2/2 40/2/2
f 40/2/2 39/2/2 41/2/2
f 42/2/2 43/2/2 44/2/2
f 44/2/2 43/2/2 45/2/2
f 50/2/3 47/2/3 46/2/3
f 51/1/3 48/1/3 47/1/3
f 51/2/3 47/2/3 50/2/3
f 52/1/3 51/1/3 50/1/3
f 53/1/3 48/1/3 51/1/3
f 53/1/3 51/1/3 52/1/3
f 54/1/3 52/1/3 50/1/3
f 54/2/3 53/2/3 52/2/3
f 55/1/3 48/1/3 53/1/3
f 55/2/3 53/2/3 54/2/3
f 56/1/3 48/1/3 55/1/3
f 57/2/3 49/2/3 48/2/3
f 57/1/3 48/1/3 56/1/3
f 58/1/3 56/1/3 55/1/3
f 58/1/3 54/1/3 50/1/3
f 58/1/3 55/1/3 54/1/3
f 59/2/3 57/2/3 56/2/3
f 59/1/3 56/1/3 58/1/3
f 60/2/3 49/2/3 57/2/3
f 60/2/3 57/2/3 59/2/3
f 61/2/3 49/2/3 60/2/3
f 62/2/3 59/2/3 58/2/3
f 62/2/3 60/2/3 59/2/3
f 63/2/3 60/2/3 62/2/3
f 64/2/4 65/2/4 68/2/4
f 65/1/4 66/1/4 69/1/4
f 68/2/4 65/2/4 69/2/4
f 66/2/4 67/2/4 70/2/4
f 69/1/4 66/1/4 70/1/4
f 70/2/4 67/2/4 71/2/4
f 72/2/4 73/2/4 75/2/4
f 74/2/4 75/2/4 77/2/4
f 75/2/4 73/2/4 78/2/4
f 76/2/4 77/2/4 78/2/4
f 77/2/4 75/2/4 78/2/4
f 78/2/4 73/2/4 79/2/4
f 76/2/4 78/2/4 80/2/4
f 80/2/4 78/2/4 81/2/4
f 82/2/4 83/2/4 85/2/4
f 85/2/4 83/2/4 86/2/4
f 84/2/4 85/2/4 86/2/4
f 86/2/4 83/2/4 87/2/4
f 84/2/4 86/2/4 88/2/4
f 88/2/4 86/2/4 89/2/4
f 90/2/4 91/2/4 92/2/4
f 92/2/4 91/2/4 93/2/4
f 94/2/4 95/2/4 96/2/4
f 96/2/4 95/2/4 97/2/4
f 102/2/5 99/2/5 98/2/5
f 103/1/5 100/1/5 99/1/5
f 103/2/5 99/2/5 102/2/5
f 104/1/5 100/1/5 103/1/5
f 105/2/5 101/2/5 100/2/5
f 105/1/5 100/1/5 104/1/5
f 106/1/5 104/1/5 103/1/5
f 107/2/5 105/2/5 104/2/5
f 107/1/5 104/1/5 106/1/5
f 108/2/5 101/2/5 105/2/5
f 108/2/5 105/2/5 107/2/5
f 109/2/5 107/2/5 106/2/5
f 110/2/5 107/2/5 109/2/5
f 111/2/5 109/2/5 106/2/5
f 112/2/5 109/2/5 111/2/5
f 115/2/5 114/2/5 113/2/5
f 116/2/5 114/2/5 115/2/5
f 117/2/6 118/2/6 119/2/6
f 119/2/6 118/2/6 120/2/6
f 121/2/6 122/2/6 123/2/6
f 123/2/6 122/2/6 124/2/6
f 125/2/6 126/2/6 127/2/6
f 127/2/6 126/2/6 128/2/6
f 129/2/6 130/2/6 131/2/6
f 131/2/6 130/2/6 132/2/6
f 133/2/6 134/2/6 135/2/6
f 135/2/6 134/2/6 136/2/6
f 136/2/6 134/2/6 137/2/6
f 137/2/6 134/2/6 138/2/6
