# MagicaVoxel @ Ephtracy

# group
o 

# material
mtllib TV_D.mtl
usemtl palette

# normals
vn -1 0 0
vn 1 0 0
vn 0 0 1
vn 0 0 -1
vn 0 -1 0
vn 0 1 0

# texcoords
vt 0.986328 0.5
vt 0.990234 0.5
vt 0.994141 0.5

# verts
v -1.5 0.8 2
v -1.5 0.8 1.3
v -1.5 1.1 2
v -1.5 1.1 1.9
v -1.5 1.2 1.9
v -1.5 1.2 1.3
v -1.4 0.7 2
v -1.4 0.7 1.3
v -1.4 0.8 2
v -1.4 0.8 1.3
v -1.3 0.4 2
v -1.3 0.4 1.3
v -1.3 0.7 2
v -1.3 0.7 1.3
v -1.3 0.9 1.3
v -1.3 0.9 0.9
v -1.3 1.2 1.3
v -1.3 1.2 0.9
v -1.2 0.8 1.3
v -1.2 0.8 0.9
v -1.2 0.9 1.3
v -1.2 0.9 0.9
v -1.1 1 0.9
v -1.1 1 0.6
v -1.1 1.2 0.9
v -1.1 1.2 0.6
v -0.8 1.1 2
v -0.8 1.1 1.9
v -0.8 1.2 2
v -0.8 1.2 1.9
v -0.7 0.4 2
v -0.7 0.4 1.3
v -0.7 0.6 2
v -0.7 0.6 1.4
v -0.7 0.8 2
v -0.7 0.8 1.4
v -0.7 0.8 1.3
v -0.7 0.8 0.9
v -0.7 0.9 2
v -0.7 0.9 1.3
v -0.7 1 0.9
v -0.7 1 0.6
v -0.7 1.2 2
v -0.7 1.2 1.3
v -0.7 1.2 0.6
v -1.5 0.8 2
v -1.5 1.1 2
v -1.4 0.7 2
v -1.4 0.8 2
v -1.4 1.1 2
v -1.3 0.4 2
v -1.3 0.7 2
v -1.3 0.8 2
v -1.2 0.6 2
v -1.2 0.7 2
v -1.2 1 2
v -1.2 1.1 2
v -1.1 0.9 2
v -1.1 1 2
v -1.1 1.1 2
v -1 0.8 2
v -1 0.9 2
v -1 1 2
v -1 1.1 2
v -0.8 1.1 2
v -0.8 1.2 2
v -0.7 0.4 2
v -0.7 0.6 2
v -0.7 0.8 2
v -0.7 0.9 2
v -0.7 1.2 2
v -1.5 1.1 1.9
v -1.5 1.2 1.9
v -1.4 1.1 1.9
v -1.4 1.2 1.9
v -1.2 1.1 1.9
v -1.2 1.2 1.9
v -1.1 1.1 1.9
v -1.1 1.2 1.9
v -1 1.1 1.9
v -1 1.2 1.9
v -0.8 1.1 1.9
v -0.8 1.2 1.9
v -1.5 0.8 1.3
v -1.5 1.2 1.3
v -1.4 0.7 1.3
v -1.4 0.8 1.3
v -1.3 0.4 1.3
v -1.3 0.7 1.3
v -1.3 0.9 1.3
v -1.3 1.2 1.3
v -1.2 0.8 1.3
v -1.2 0.9 1.3
v -0.7 0.4 1.3
v -0.7 0.8 1.3
v -1.3 0.9 0.9
v -1.3 1.2 0.9
v -1.2 0.8 0.9
v -1.2 0.9 0.9
v -1.1 1 0.9
v -1.1 1.2 0.9
v -0.7 0.8 0.9
v -0.7 1 0.9
v -1.1 1 0.6
v -1.1 1.2 0.6
v -0.7 1 0.6
v -0.7 1.2 0.6
v -1.3 0.4 2
v -0.7 0.4 2
v -1.3 0.4 1.3
v -0.7 0.4 1.3
v -1.4 0.7 2
v -1.3 0.7 2
v -1.4 0.7 1.3
v -1.3 0.7 1.3
v -1.5 0.8 2
v -1.4 0.8 2
v -1.5 0.8 1.3
v -1.4 0.8 1.3
v -1.2 0.8 1.3
v -0.7 0.8 1.3
v -1.2 0.8 0.9
v -0.7 0.8 0.9
v -1.3 0.9 1.3
v -1.2 0.9 1.3
v -1.3 0.9 0.9
v -1.2 0.9 0.9
v -1.1 1 0.9
v -0.7 1 0.9
v -1.1 1 0.6
v -0.7 1 0.6
v -1.5 1.1 2
v -1.4 1.1 2
v -1.2 1.1 2
v -1.1 1.1 2
v -1 1.1 2
v -0.8 1.1 2
v -1.5 1.1 1.9
v -1.4 1.1 1.9
v -1.2 1.1 1.9
v -1.1 1.1 1.9
v -1 1.1 1.9
v -0.8 1.1 1.9
v -0.8 1.2 2
v -0.7 1.2 2
v -1.5 1.2 1.9
v -1.4 1.2 1.9
v -1.2 1.2 1.9
v -1.1 1.2 1.9
v -1 1.2 1.9
v -0.8 1.2 1.9
v -1.4 1.2 1.4
v -1.3 1.2 1.4
v -1.5 1.2 1.3
v -1.3 1.2 1.3
v -1.2 1.2 1.3
v -1.1 1.2 1.3
v -1 1.2 1.3
v -0.7 1.2 1.3
v -1.3 1.2 0.9
v -1.1 1.2 0.9
v -1.1 1.2 0.6
v -0.7 1.2 0.6

# faces
f 3/3/1 2/3/1 1/3/1
f 4/3/1 2/3/1 3/3/1
f 5/3/1 2/3/1 4/3/1
f 6/3/1 2/3/1 5/3/1
f 9/3/1 8/3/1 7/3/1
f 10/3/1 8/3/1 9/3/1
f 13/3/1 12/3/1 11/3/1
f 14/3/1 12/3/1 13/3/1
f 17/3/1 16/3/1 15/3/1
f 18/3/1 16/3/1 17/3/1
f 21/3/1 20/3/1 19/3/1
f 22/3/1 20/3/1 21/3/1
f 25/3/1 24/3/1 23/3/1
f 26/3/1 24/3/1 25/3/1
f 29/2/1 28/2/1 27/2/1
f 30/2/1 28/2/1 29/2/1
f 31/3/2 32/3/2 33/3/2
f 33/3/2 32/3/2 34/3/2
f 33/1/2 34/1/2 35/1/2
f 34/3/2 32/3/2 36/3/2
f 35/1/2 34/1/2 36/1/2
f 36/3/2 32/3/2 37/3/2
f 35/3/2 36/3/2 39/3/2
f 37/3/2 38/3/2 39/3/2
f 36/3/2 37/3/2 39/3/2
f 39/3/2 38/3/2 40/3/2
f 40/3/2 38/3/2 41/3/2
f 39/2/2 40/2/2 43/2/2
f 41/3/2 42/3/2 44/3/2
f 43/2/2 40/2/2 44/2/2
f 40/3/2 41/3/2 44/3/2
f 44/3/2 42/3/2 45/3/2
f 49/3/3 47/3/3 46/3/3
f 50/3/3 47/3/3 49/3/3
f 52/3/3 49/3/3 48/3/3
f 53/1/3 50/1/3 49/1/3
f 53/3/3 49/3/3 52/3/3
f 54/3/3 52/3/3 51/3/3
f 55/1/3 53/1/3 52/1/3
f 55/3/3 52/3/3 54/3/3
f 56/1/3 50/1/3 53/1/3
f 56/1/3 53/1/3 55/1/3
f 57/1/3 50/1/3 56/1/3
f 58/1/3 55/1/3 54/1/3
f 58/1/3 56/1/3 55/1/3
f 59/3/3 57/3/3 56/3/3
f 59/1/3 56/1/3 58/1/3
f 60/3/3 57/3/3 59/3/3
f 61/1/3 58/1/3 54/1/3
f 62/3/3 59/3/3 58/3/3
f 62/1/3 58/1/3 61/1/3
f 63/1/3 60/1/3 59/1/3
f 63/3/3 59/3/3 62/3/3
f 64/1/3 60/1/3 63/1/3
f 65/2/3 63/2/3 62/2/3
f 65/2/3 64/2/3 63/2/3
f 67/3/3 54/3/3 51/3/3
f 68/1/3 61/1/3 54/1/3
f 68/3/3 54/3/3 67/3/3
f 69/3/3 62/3/3 61/3/3
f 69/1/3 61/1/3 68/1/3
f 70/2/3 65/2/3 62/2/3
f 70/3/3 62/3/3 69/3/3
f 70/2/3 66/2/3 65/2/3
f 71/2/3 66/2/3 70/2/3
f 74/3/3 73/3/3 72/3/3
f 75/3/3 73/3/3 74/3/3
f 76/1/3 75/1/3 74/1/3
f 77/1/3 75/1/3 76/1/3
f 78/3/3 77/3/3 76/3/3
f 79/3/3 77/3/3 78/3/3
f 80/1/3 79/1/3 78/1/3
f 81/1/3 79/1/3 80/1/3
f 82/2/3 81/2/3 80/2/3
f 83/2/3 81/2/3 82/2/3
f 84/3/4 85/3/4 87/3/4
f 86/3/4 87/3/4 89/3/4
f 87/3/4 85/3/4 90/3/4
f 89/3/4 87/3/4 90/3/4
f 90/3/4 85/3/4 91/3/4
f 88/3/4 89/3/4 92/3/4
f 89/3/4 90/3/4 92/3/4
f 92/3/4 90/3/4 93/3/4
f 88/3/4 92/3/4 94/3/4
f 94/3/4 92/3/4 95/3/4
f 96/3/4 97/3/4 99/3/4
f 99/3/4 97/3/4 100/3/4
f 98/3/4 99/3/4 100/3/4
f 100/3/4 97/3/4 101/3/4
f 98/3/4 100/3/4 102/3/4
f 102/3/4 100/3/4 103/3/4
f 104/3/4 105/3/4 106/3/4
f 106/3/4 105/3/4 107/3/4
f 110/3/5 109/3/5 108/3/5
f 111/3/5 109/3/5 110/3/5
f 114/3/5 113/3/5 112/3/5
f 115/3/5 113/3/5 114/3/5
f 118/3/5 117/3/5 116/3/5
f 119/3/5 117/3/5 118/3/5
f 122/3/5 121/3/5 120/3/5
f 123/3/5 121/3/5 122/3/5
f 126/3/5 125/3/5 124/3/5
f 127/3/5 125/3/5 126/3/5
f 130/3/5 129/3/5 128/3/5
f 131/3/5 129/3/5 130/3/5
f 132/3/6 133/3/6 138/3/6
f 133/1/6 134/1/6 139/1/6
f 138/3/6 133/3/6 139/3/6
f 134/3/6 135/3/6 140/3/6
f 139/1/6 134/1/6 140/1/6
f 135/1/6 136/1/6 141/1/6
f 140/3/6 135/3/6 141/3/6
f 136/2/6 137/2/6 142/2/6
f 141/1/6 136/1/6 142/1/6
f 142/2/6 137/2/6 143/2/6
f 144/2/6 145/2/6 151/2/6
f 146/3/6 147/3/6 152/3/6
f 147/1/6 148/1/6 152/1/6
f 152/1/6 148/1/6 153/1/6
f 146/3/6 152/3/6 154/3/6
f 152/3/6 153/3/6 154/3/6
f 153/1/6 148/1/6 155/1/6
f 154/3/6 153/3/6 155/3/6
f 148/3/6 149/3/6 156/3/6
f 155/1/6 148/1/6 156/1/6
f 149/1/6 150/1/6 157/1/6
f 156/3/6 149/3/6 157/3/6
f 150/2/6 151/2/6 158/2/6
f 157/1/6 150/1/6 158/1/6
f 151/2/6 145/2/6 159/2/6
f 158/2/6 151/2/6 159/2/6
f 155/3/6 156/3/6 160/3/6
f 156/3/6 157/3/6 160/3/6
f 158/3/6 159/3/6 160/3/6
f 157/3/6 158/3/6 160/3/6
f 160/3/6 159/3/6 161/3/6
f 161/3/6 159/3/6 162/3/6
f 162/3/6 159/3/6 163/3/6
