# MagicaVoxel @ Ephtracy

# group
o 

# material
mtllib TV_E.mtl
usemtl palette

# normals
vn -1 0 0
vn 1 0 0
vn 0 0 1
vn 0 0 -1
vn 0 -1 0
vn 0 1 0

# texcoords
vt 0.974609 0.5
vt 0.986328 0.5
vt 0.990234 0.5
vt 0.994141 0.5

# verts
v -1 2.1 2
v -1 2.1 1.4
v -1 2.2 2
v -1 2.2 1.4
v -1 2.2 1
v -1 2.3 2
v -1 2.3 1.3
v -1 2.4 1.4
v -1 2.4 1.3
v -1 2.4 1
v -1 2.5 2
v -1 2.5 1.4
v -1 2.6 2
v -1 2.6 1.3
v -0.9 2.2 1
v -0.9 2.2 0.9
v -0.9 2.4 1
v -0.9 2.4 0.9
v -0.5 1.9 2
v -0.5 1.9 1.4
v -0.5 2 1.4
v -0.5 2 1.3
v -0.5 2 0.7
v -0.5 2.1 2
v -0.5 2.1 1.5
v -0.5 2.1 1.3
v -0.5 2.2 1.5
v -0.5 2.2 1.3
v -0.5 2.2 0.9
v -0.5 2.2 0.7
v -0.4 2 0.7
v -0.4 2 0.6
v -0.4 2.2 0.7
v -0.4 2.2 0.6
v -0.4 2.6 2
v -0.4 2.6 1.3
v -0.4 2.7 2
v -0.4 2.7 1.3
v -0.3 2.7 1.9
v -0.3 2.7 1.3
v -0.3 2.8 1.9
v -0.3 2.8 1.3
v 0.4 1.9 1.4
v 0.4 1.9 1.3
v 0.4 2 1.4
v 0.4 2 1.3
v -0.8 2.1 1.5
v -0.8 2.1 1.4
v -0.8 2.2 1.5
v -0.8 2.2 1.4
v 0.3 2.7 1.9
v 0.3 2.7 1.3
v 0.3 2.8 1.9
v 0.3 2.8 1.3
v 0.4 2.6 2
v 0.4 2.6 1.3
v 0.4 2.7 2
v 0.4 2.7 1.3
v 0.7 1.9 2
v 0.7 1.9 1.6
v 0.7 2.1 2
v 0.7 2.1 1.6
v 0.7 2.2 2
v 0.7 2.2 1.6
v 0.7 2.5 2
v 0.7 2.5 1.6
v 0.7 2.6 2
v 0.7 2.6 1.6
v 0.8 1.9 1.6
v 0.8 1.9 1.3
v 0.8 2 1.3
v 0.8 2 0.6
v 0.8 2.1 1.6
v 0.8 2.1 1.3
v 0.8 2.2 0.9
v 0.8 2.2 0.6
v 0.8 2.4 1.4
v 0.8 2.4 1.3
v 0.8 2.4 0.9
v 0.8 2.5 1.6
v 0.8 2.5 1.4
v 0.8 2.6 1.6
v 0.8 2.6 1.3
v -1 2.1 2
v -1 2.2 2
v -1 2.3 2
v -1 2.5 2
v -1 2.6 2
v -0.5 1.9 2
v -0.5 2.1 2
v -0.4 2.6 2
v -0.4 2.7 2
v -0.3 2.6 2
v -0.3 2.7 2
v 0.3 2.6 2
v 0.3 2.7 2
v 0.4 2.6 2
v 0.4 2.7 2
v 0.6 2.1 2
v 0.6 2.2 2
v 0.6 2.3 2
v 0.7 1.9 2
v 0.7 2.1 2
v 0.7 2.2 2
v 0.7 2.5 2
v 0.7 2.6 2
v -0.3 2.7 1.9
v -0.3 2.8 1.9
v -0.2 2.7 1.9
v -0.2 2.8 1.9
v 0.2 2.7 1.9
v 0.2 2.8 1.9
v 0.3 2.7 1.9
v 0.3 2.8 1.9
v 0.7 1.9 1.6
v 0.7 2.1 1.6
v 0.7 2.2 1.6
v 0.7 2.5 1.6
v 0.7 2.6 1.6
v 0.8 1.9 1.6
v 0.8 2.1 1.6
v 0.8 2.5 1.6
v 0.8 2.6 1.6
v -0.8 2.1 1.5
v -0.8 2.2 1.5
v -0.5 2.1 1.5
v -0.5 2.2 1.5
v -1 2.1 1.4
v -1 2.2 1.4
v -0.8 2.1 1.4
v -0.8 2.2 1.4
v -0.5 1.9 1.4
v -0.5 2 1.4
v 0.4 1.9 1.4
v 0.4 2 1.4
v -1 2.4 1.3
v -1 2.6 1.3
v -0.4 2.6 1.3
v -0.4 2.7 1.3
v -0.3 2.6 1.3
v -0.3 2.7 1.3
v -0.3 2.8 1.3
v -0.2 2.7 1.3
v -0.2 2.8 1.3
v 0.2 2.7 1.3
v 0.2 2.8 1.3
v 0.3 2.6 1.3
v 0.3 2.7 1.3
v 0.3 2.8 1.3
v 0.4 1.9 1.3
v 0.4 2 1.3
v 0.4 2.6 1.3
v 0.4 2.7 1.3
v 0.7 1.9 1.3
v 0.7 2 1.3
v 0.8 1.9 1.3
v 0.8 2 1.3
v 0.8 2.4 1.3
v 0.8 2.6 1.3
v -1 2.2 1
v -1 2.4 1
v -0.9 2.2 1
v -0.9 2.4 1
v -0.9 2.2 0.9
v -0.9 2.4 0.9
v -0.5 2.2 0.9
v 0.8 2.2 0.9
v 0.8 2.4 0.9
v -0.5 2 0.7
v -0.5 2.2 0.7
v -0.4 2 0.7
v -0.4 2.2 0.7
v -0.4 2 0.6
v -0.4 2.2 0.6
v 0.8 2 0.6
v 0.8 2.2 0.6
v -0.5 1.9 2
v 0.7 1.9 2
v 0.7 1.9 1.6
v 0.8 1.9 1.6
v -0.5 1.9 1.4
v 0.4 1.9 1.4
v 0.4 1.9 1.3
v 0.7 1.9 1.3
v 0.8 1.9 1.3
v -0.5 2 1.4
v 0.4 2 1.4
v -0.5 2 1.3
v 0.4 2 1.3
v 0.7 2 1.3
v 0.8 2 1.3
v -0.5 2 0.7
v -0.4 2 0.7
v -0.4 2 0.6
v 0.8 2 0.6
v -1 2.1 2
v -0.5 2.1 2
v -0.8 2.1 1.5
v -0.5 2.1 1.5
v -1 2.1 1.4
v -0.8 2.1 1.4
v -0.8 2.2 1.5
v -0.5 2.2 1.5
v -1 2.2 1.4
v -0.8 2.2 1.4
v -0.5 2.2 1.3
v -1 2.2 1
v -0.9 2.2 1
v -0.9 2.2 0.9
v -0.5 2.2 0.9
v -0.5 2.2 0.9
v 0.8 2.2 0.9
v -0.5 2.2 0.7
v -0.4 2.2 0.7
v -0.4 2.2 0.6
v 0.8 2.2 0.6
v -1 2.4 1.3
v 0.8 2.4 1.3
v -1 2.4 1
v -0.9 2.4 1
v -0.9 2.4 0.9
v 0.8 2.4 0.9
v -1 2.6 2
v -0.4 2.6 2
v 0.4 2.6 2
v 0.7 2.6 2
v 0.7 2.6 1.6
v 0.8 2.6 1.6
v -1 2.6 1.3
v -0.4 2.6 1.3
v 0.4 2.6 1.3
v 0.8 2.6 1.3
v -0.4 2.7 2
v -0.3 2.7 2
v 0.3 2.7 2
v 0.4 2.7 2
v -0.3 2.7 1.9
v -0.2 2.7 1.9
v 0.2 2.7 1.9
v 0.3 2.7 1.9
v -0.4 2.7 1.3
v -0.3 2.7 1.3
v 0.3 2.7 1.3
v 0.4 2.7 1.3
v -0.3 2.8 1.9
v -0.2 2.8 1.9
v 0.2 2.8 1.9
v 0.3 2.8 1.9
v -0.3 2.8 1.3
v -0.2 2.8 1.3
v 0.2 2.8 1.3
v 0.3 2.8 1.3

# faces
f 3/2/1 2/2/1 1/2/1
f 4/2/1 2/2/1 3/2/1
f 6/4/1 4/4/1 3/4/1
f 6/4/1 5/4/1 4/4/1
f 7/4/1 5/4/1 6/4/1
f 8/2/1 7/2/1 6/2/1
f 9/4/1 5/4/1 7/4/1
f 9/2/1 7/2/1 8/2/1
f 10/4/1 5/4/1 9/4/1
f 11/2/1 8/2/1 6/2/1
f 12/4/1 9/4/1 8/4/1
f 12/2/1 8/2/1 11/2/1
f 13/4/1 12/4/1 11/4/1
f 14/4/1 9/4/1 12/4/1
f 14/4/1 12/4/1 13/4/1
f 17/4/1 16/4/1 15/4/1
f 18/4/1 16/4/1 17/4/1
f 21/3/1 20/3/1 19/3/1
f 24/3/1 21/3/1 19/3/1
f 24/3/1 22/3/1 21/3/1
f 25/3/1 22/3/1 24/3/1
f 26/4/1 23/4/1 22/4/1
f 26/3/1 22/3/1 25/3/1
f 27/2/1 26/2/1 25/2/1
f 28/4/1 23/4/1 26/4/1
f 28/2/1 26/2/1 27/2/1
f 29/4/1 23/4/1 28/4/1
f 30/4/1 23/4/1 29/4/1
f 33/4/1 32/4/1 31/4/1
f 34/4/1 32/4/1 33/4/1
f 37/4/1 36/4/1 35/4/1
f 38/4/1 36/4/1 37/4/1
f 41/4/1 40/4/1 39/4/1
f 42/4/1 40/4/1 41/4/1
f 45/3/1 44/3/1 43/3/1
f 46/3/1 44/3/1 45/3/1
f 47/2/2 48/2/2 49/2/2
f 49/2/2 48/2/2 50/2/2
f 51/4/2 52/4/2 53/4/2
f 53/4/2 52/4/2 54/4/2
f 55/4/2 56/4/2 57/4/2
f 57/4/2 56/4/2 58/4/2
f 59/3/2 60/3/2 61/3/2
f 61/3/2 60/3/2 62/3/2
f 61/4/2 62/4/2 63/4/2
f 63/4/2 62/4/2 64/4/2
f 63/2/2 64/2/2 65/2/2
f 65/2/2 64/2/2 66/2/2
f 65/4/2 66/4/2 67/4/2
f 67/4/2 66/4/2 68/4/2
f 69/4/2 70/4/2 71/4/2
f 69/4/2 71/4/2 73/4/2
f 71/4/2 72/4/2 73/4/2
f 73/4/2 72/4/2 74/4/2
f 74/4/2 72/4/2 75/4/2
f 75/4/2 72/4/2 76/4/2
f 73/2/2 74/2/2 77/2/2
f 74/4/2 75/4/2 78/4/2
f 77/2/2 74/2/2 78/2/2
f 78/4/2 75/4/2 79/4/2
f 73/2/2 77/2/2 80/2/2
f 77/4/2 78/4/2 81/4/2
f 80/2/2 77/2/2 81/2/2
f 80/4/2 81/4/2 82/4/2
f 81/4/2 78/4/2 83/4/2
f 82/4/2 81/4/2 83/4/2
f 90/2/3 85/2/3 84/2/3
f 91/4/3 88/4/3 87/4/3
f 93/4/3 91/4/3 87/4/3
f 93/4/3 92/4/3 91/4/3
f 94/4/3 92/4/3 93/4/3
f 95/4/3 93/4/3 87/4/3
f 95/1/3 94/1/3 93/1/3
f 96/1/3 94/1/3 95/1/3
f 97/4/3 95/4/3 87/4/3
f 97/4/3 96/4/3 95/4/3
f 98/4/3 96/4/3 97/4/3
f 99/3/3 90/3/3 89/3/3
f 99/2/3 85/2/3 90/2/3
f 100/4/3 86/4/3 85/4/3
f 100/2/3 85/2/3 99/2/3
f 101/2/3 87/2/3 86/2/3
f 101/4/3 86/4/3 100/4/3
f 102/3/3 99/3/3 89/3/3
f 103/4/3 100/4/3 99/4/3
f 103/3/3 99/3/3 102/3/3
f 104/2/3 101/2/3 100/2/3
f 104/4/3 100/4/3 103/4/3
f 105/2/3 87/2/3 101/2/3
f 105/2/3 101/2/3 104/2/3
f 105/4/3 97/4/3 87/4/3
f 106/4/3 97/4/3 105/4/3
f 109/4/3 108/4/3 107/4/3
f 110/4/3 108/4/3 109/4/3
f 111/1/3 110/1/3 109/1/3
f 112/1/3 110/1/3 111/1/3
f 113/4/3 112/4/3 111/4/3
f 114/4/3 112/4/3 113/4/3
f 120/4/3 116/4/3 115/4/3
f 121/2/3 117/2/3 116/2/3
f 121/4/3 116/4/3 120/4/3
f 121/2/3 118/2/3 117/2/3
f 122/4/3 119/4/3 118/4/3
f 122/2/3 118/2/3 121/2/3
f 123/4/3 119/4/3 122/4/3
f 124/2/4 125/2/4 126/2/4
f 126/2/4 125/2/4 127/2/4
f 128/2/4 129/2/4 130/2/4
f 130/2/4 129/2/4 131/2/4
f 132/3/4 133/3/4 134/3/4
f 134/3/4 133/3/4 135/3/4
f 136/4/4 137/4/4 138/4/4
f 136/4/4 138/4/4 140/4/4
f 138/4/4 139/4/4 140/4/4
f 140/4/4 139/4/4 141/4/4
f 140/1/4 141/1/4 143/1/4
f 141/4/4 142/4/4 143/4/4
f 143/4/4 142/4/4 144/4/4
f 140/1/4 143/1/4 145/1/4
f 143/1/4 144/1/4 145/1/4
f 145/1/4 144/1/4 146/1/4
f 136/4/4 140/4/4 147/4/4
f 140/1/4 145/1/4 147/1/4
f 145/4/4 146/4/4 148/4/4
f 147/1/4 145/1/4 148/1/4
f 148/4/4 146/4/4 149/4/4
f 136/4/4 147/4/4 152/4/4
f 147/4/4 148/4/4 152/4/4
f 152/4/4 148/4/4 153/4/4
f 150/3/4 151/3/4 154/3/4
f 154/3/4 151/3/4 155/3/4
f 154/4/4 155/4/4 156/4/4
f 156/4/4 155/4/4 157/4/4
f 136/4/4 152/4/4 158/4/4
f 158/4/4 152/4/4 159/4/4
f 160/4/4 161/4/4 162/4/4
f 162/4/4 161/4/4 163/4/4
f 164/4/4 165/4/4 166/4/4
f 166/4/4 165/4/4 167/4/4
f 167/4/4 165/4/4 168/4/4
f 169/4/4 170/4/4 171/4/4
f 171/4/4 170/4/4 172/4/4
f 173/4/4 174/4/4 175/4/4
f 175/4/4 174/4/4 176/4/4
f 179/3/5 178/3/5 177/3/5
f 181/3/5 179/3/5 177/3/5
f 182/3/5 179/3/5 181/3/5
f 183/3/5 179/3/5 182/3/5
f 184/4/5 180/4/5 179/4/5
f 184/3/5 179/3/5 183/3/5
f 185/4/5 180/4/5 184/4/5
f 188/3/5 187/3/5 186/3/5
f 189/3/5 187/3/5 188/3/5
f 192/4/5 189/4/5 188/4/5
f 192/4/5 191/4/5 190/4/5
f 192/4/5 190/4/5 189/4/5
f 193/4/5 191/4/5 192/4/5
f 194/4/5 191/4/5 193/4/5
f 195/4/5 191/4/5 194/4/5
f 198/2/5 197/2/5 196/2/5
f 199/2/5 197/2/5 198/2/5
f 200/2/5 198/2/5 196/2/5
f 201/2/5 198/2/5 200/2/5
f 205/4/5 203/4/5 202/4/5
f 206/4/5 203/4/5 205/4/5
f 206/4/5 205/4/5 204/4/5
f 207/4/5 206/4/5 204/4/5
f 208/4/5 206/4/5 207/4/5
f 209/4/5 206/4/5 208/4/5
f 210/4/5 206/4/5 209/4/5
f 211/4/6 212/4/6 213/4/6
f 213/4/6 212/4/6 214/4/6
f 214/4/6 212/4/6 215/4/6
f 215/4/6 212/4/6 216/4/6
f 217/4/6 218/4/6 219/4/6
f 219/4/6 218/4/6 220/4/6
f 220/4/6 218/4/6 221/4/6
f 221/4/6 218/4/6 222/4/6
f 225/4/6 226/4/6 227/4/6
f 223/4/6 224/4/6 229/4/6
f 229/4/6 224/4/6 230/4/6
f 227/4/6 228/4/6 231/4/6
f 225/4/6 227/4/6 231/4/6
f 231/4/6 228/4/6 232/4/6
f 233/4/6 234/4/6 237/4/6
f 234/1/6 235/1/6 237/1/6
f 237/1/6 235/1/6 238/1/6
f 238/1/6 235/1/6 239/1/6
f 235/4/6 236/4/6 240/4/6
f 239/1/6 235/1/6 240/1/6
f 233/4/6 237/4/6 241/4/6
f 241/4/6 237/4/6 242/4/6
f 240/4/6 236/4/6 243/4/6
f 243/4/6 236/4/6 244/4/6
f 245/4/6 246/4/6 249/4/6
f 246/1/6 247/1/6 250/1/6
f 249/4/6 246/4/6 250/4/6
f 247/4/6 248/4/6 251/4/6
f 250/1/6 247/1/6 251/1/6
f 251/4/6 248/4/6 252/4/6
