# MagicaVoxel @ Ephtracy

# group
o 

# material
mtllib TV_H.mtl
usemtl palette

# normals
vn -1 0 0
vn 1 0 0
vn 0 0 1
vn 0 0 -1
vn 0 -1 0
vn 0 1 0

# texcoords
vt 0.958984 0.5
vt 0.990234 0.5
vt 0.994141 0.5

# verts
v -0.5 1.2 2
v -0.5 1.2 1.6
v -0.5 1.3 1.6
v -0.5 1.3 1.3
v -0.5 1.3 1.2
v -0.5 1.4 1.2
v -0.5 1.4 0.7
v -0.5 1.9 2
v -0.5 1.9 1.4
v -0.5 2 1.4
v -0.5 2 1.3
v -0.5 2 0.7
v -0.4 1.5 0.7
v -0.4 1.5 0.6
v -0.4 2 0.7
v -0.4 2 0.6
v 5.96046e-008 1.3 1.2
v 5.96046e-008 1.3 1.1
v 5.96046e-008 1.4 1.2
v 5.96046e-008 1.4 1.1
v 0.4 1.9 1.4
v 0.4 1.9 1.3
v 0.4 2 1.4
v 0.4 2 1.3
v 0.5 1.2 2
v 0.5 1.2 1.6
v 0.5 1.3 1.6
v 0.5 1.3 1.3
v 0.5 1.3 1.1
v 0.5 1.4 1.1
v 0.5 1.4 0.7
v 0.5 1.5 0.7
v 0.5 1.5 0.6
v 0.5 1.6 2
v 0.5 1.6 1.3
v 0.5 1.7 2
v 0.5 1.7 1.3
v 0.5 1.9 2
v 0.5 1.9 1.3
v 0.5 1.9 0.7
v 0.5 1.9 0.6
v 0.5 2 1.3
v 0.5 2 0.7
v 0.6 1.9 0.7
v 0.6 1.9 0.6
v 0.6 2 0.7
v 0.6 2 0.6
v -0.5 1.2 2
v -0.5 1.9 2
v -0.1 1.6 2
v -0.1 1.7 2
v 0.3 1.3 2
v 0.3 1.5 2
v 0.4 1.3 2
v 0.4 1.5 2
v 0.5 1.2 2
v 0.5 1.6 2
v 0.5 1.7 2
v 0.5 1.9 2
v -0.5 1.9 1.4
v -0.5 2 1.4
v 0.4 1.9 1.4
v 0.4 2 1.4
v 0.4 1.9 1.3
v 0.4 2 1.3
v 0.5 1.9 1.3
v 0.5 2 1.3
v 0.5 1.9 0.7
v 0.5 2 0.7
v 0.6 1.9 0.7
v 0.6 2 0.7
v -0.5 1.2 1.6
v -0.5 1.3 1.6
v 0.3 1.3 1.6
v 0.4 1.3 1.6
v 0.5 1.2 1.6
v 0.5 1.3 1.6
v -0.5 1.3 1.2
v -0.5 1.4 1.2
v 5.96046e-008 1.3 1.2
v 5.96046e-008 1.4 1.2
v 5.96046e-008 1.3 1.1
v 5.96046e-008 1.4 1.1
v 0.5 1.3 1.1
v 0.5 1.4 1.1
v -0.5 1.4 0.7
v -0.5 2 0.7
v -0.4 1.5 0.7
v -0.4 2 0.7
v 0.5 1.4 0.7
v 0.5 1.5 0.7
v -0.4 1.5 0.6
v -0.4 2 0.6
v 0.5 1.5 0.6
v 0.5 1.9 0.6
v 0.6 1.9 0.6
v 0.6 2 0.6
v -0.5 1.2 2
v 0.5 1.2 2
v -0.5 1.2 1.6
v 0.5 1.2 1.6
v -0.5 1.3 1.6
v 0.3 1.3 1.6
v 0.4 1.3 1.6
v 0.5 1.3 1.6
v -0.5 1.3 1.3
v 0.3 1.3 1.3
v 0.4 1.3 1.3
v 0.5 1.3 1.3
v -0.5 1.3 1.2
v 5.96046e-008 1.3 1.2
v 5.96046e-008 1.3 1.1
v 0.5 1.3 1.1
v -0.5 1.4 1.2
v 5.96046e-008 1.4 1.2
v 5.96046e-008 1.4 1.1
v 0.5 1.4 1.1
v -0.5 1.4 0.7
v 0.5 1.4 0.7
v -0.4 1.5 0.7
v 0.5 1.5 0.7
v -0.4 1.5 0.6
v 0.5 1.5 0.6
v 0.5 1.9 0.7
v 0.6 1.9 0.7
v 0.5 1.9 0.6
v 0.6 1.9 0.6
v -0.5 1.9 2
v 0.5 1.9 2
v -0.5 1.9 1.4
v 0.4 1.9 1.4
v 0.4 1.9 1.3
v 0.5 1.9 1.3
v -0.5 2 1.4
v 0.4 2 1.4
v -0.5 2 1.3
v 0.4 2 1.3
v 0.5 2 1.3
v -0.5 2 0.7
v -0.4 2 0.7
v 0.5 2 0.7
v 0.6 2 0.7
v -0.4 2 0.6
v 0.6 2 0.6

# faces
f 3/2/1 2/2/1 1/2/1
f 6/3/1 5/3/1 4/3/1
f 8/2/1 3/2/1 1/2/1
f 8/2/1 4/2/1 3/2/1
f 9/2/1 4/2/1 8/2/1
f 10/2/1 4/2/1 9/2/1
f 11/3/1 7/3/1 6/3/1
f 11/2/1 4/2/1 10/2/1
f 11/3/1 6/3/1 4/3/1
f 12/3/1 7/3/1 11/3/1
f 15/3/1 14/3/1 13/3/1
f 16/3/1 14/3/1 15/3/1
f 19/3/1 18/3/1 17/3/1
f 20/3/1 18/3/1 19/3/1
f 21/2/2 22/2/2 23/2/2
f 23/2/2 22/2/2 24/2/2
f 25/2/2 26/2/2 27/2/2
f 28/3/2 29/3/2 30/3/2
f 30/3/2 31/3/2 32/3/2
f 25/2/2 27/2/2 34/2/2
f 27/2/2 28/2/2 34/2/2
f 32/3/2 33/3/2 35/3/2
f 34/2/2 28/2/2 35/2/2
f 30/3/2 32/3/2 35/3/2
f 28/3/2 30/3/2 35/3/2
f 34/1/2 35/1/2 36/1/2
f 35/3/2 33/3/2 37/3/2
f 36/1/2 35/1/2 37/1/2
f 36/2/2 37/2/2 38/2/2
f 37/3/2 33/3/2 39/3/2
f 38/2/2 37/2/2 39/2/2
f 39/3/2 33/3/2 40/3/2
f 40/3/2 33/3/2 41/3/2
f 39/3/2 40/3/2 42/3/2
f 42/3/2 40/3/2 43/3/2
f 44/3/2 45/3/2 46/3/2
f 46/3/2 45/3/2 47/3/2
f 50/2/3 49/2/3 48/2/3
f 51/2/3 49/2/3 50/2/3
f 52/2/3 50/2/3 48/2/3
f 53/2/3 50/2/3 52/2/3
f 54/2/3 52/2/3 48/2/3
f 54/1/3 53/1/3 52/1/3
f 55/2/3 50/2/3 53/2/3
f 55/1/3 53/1/3 54/1/3
f 56/2/3 54/2/3 48/2/3
f 56/2/3 55/2/3 54/2/3
f 57/1/3 51/1/3 50/1/3
f 57/2/3 55/2/3 56/2/3
f 57/2/3 50/2/3 55/2/3
f 58/2/3 49/2/3 51/2/3
f 58/1/3 51/1/3 57/1/3
f 59/2/3 49/2/3 58/2/3
f 62/2/3 61/2/3 60/2/3
f 63/2/3 61/2/3 62/2/3
f 66/3/3 65/3/3 64/3/3
f 67/3/3 65/3/3 66/3/3
f 70/3/3 69/3/3 68/3/3
f 71/3/3 69/3/3 70/3/3
f 72/2/4 73/2/4 74/2/4
f 72/2/4 74/2/4 75/2/4
f 72/2/4 75/2/4 76/2/4
f 76/2/4 75/2/4 77/2/4
f 78/3/4 79/3/4 80/3/4
f 80/3/4 79/3/4 81/3/4
f 82/3/4 83/3/4 84/3/4
f 84/3/4 83/3/4 85/3/4
f 86/3/4 87/3/4 88/3/4
f 88/3/4 87/3/4 89/3/4
f 86/3/4 88/3/4 90/3/4
f 90/3/4 88/3/4 91/3/4
f 92/3/4 93/3/4 94/3/4
f 94/3/4 93/3/4 95/3/4
f 95/3/4 93/3/4 96/3/4
f 96/3/4 93/3/4 97/3/4
f 100/2/5 99/2/5 98/2/5
f 101/2/5 99/2/5 100/2/5
f 106/2/5 103/2/5 102/2/5
f 107/1/5 104/1/5 103/1/5
f 107/2/5 103/2/5 106/2/5
f 108/2/5 105/2/5 104/2/5
f 108/1/5 104/1/5 107/1/5
f 109/2/5 105/2/5 108/2/5
f 110/3/5 107/3/5 106/3/5
f 110/3/5 108/3/5 107/3/5
f 110/3/5 109/3/5 108/3/5
f 111/3/5 109/3/5 110/3/5
f 112/3/5 109/3/5 111/3/5
f 113/3/5 109/3/5 112/3/5
f 116/3/5 115/3/5 114/3/5
f 118/3/5 116/3/5 114/3/5
f 118/3/5 117/3/5 116/3/5
f 119/3/5 117/3/5 118/3/5
f 122/3/5 121/3/5 120/3/5
f 123/3/5 121/3/5 122/3/5
f 126/3/5 125/3/5 124/3/5
f 127/3/5 125/3/5 126/3/5
f 128/2/6 129/2/6 130/2/6
f 130/2/6 129/2/6 131/2/6
f 131/2/6 129/2/6 132/2/6
f 132/2/6 129/2/6 133/2/6
f 134/2/6 135/2/6 136/2/6
f 136/2/6 135/2/6 137/2/6
f 136/3/6 137/3/6 139/3/6
f 137/3/6 138/3/6 139/3/6
f 139/3/6 138/3/6 140/3/6
f 140/3/6 138/3/6 141/3/6
f 141/3/6 142/3/6 143/3/6
f 140/3/6 141/3/6 143/3/6
f 143/3/6 142/3/6 144/3/6
