# MagicaVoxel @ Ephtracy

# group
o 

# material
mtllib TV_I.mtl
usemtl palette

# normals
vn -1 0 0
vn 1 0 0
vn 0 0 1
vn 0 0 -1
vn 0 -1 0
vn 0 1 0

# texcoords
vt 0.958984 0.5
vt 0.986328 0.5
vt 0.990234 0.5
vt 0.994141 0.5

# verts
v -0.7 0.4 2
v -0.7 0.4 1.3
v -0.7 0.6 2
v -0.7 0.6 1.4
v -0.7 0.8 2
v -0.7 0.8 1.4
v -0.7 0.8 1.3
v -0.7 0.8 0.9
v -0.7 0.9 2
v -0.7 0.9 1.3
v -0.7 1 0.9
v -0.7 1 0.6
v -0.7 1.2 2
v -0.7 1.2 1.3
v -0.7 1.2 0.6
v -0.5 1.2 1.6
v -0.5 1.2 1.3
v -0.5 1.2 0.7
v -0.5 1.3 1.6
v -0.5 1.3 1.3
v -0.5 1.3 1.2
v -0.5 1.4 1.2
v -0.5 1.4 0.7
v -0.4 1.2 0.7
v -0.4 1.2 0.6
v -0.4 1.4 0.7
v -0.4 1.5 0.7
v -0.4 1.5 0.6
v 0.8 0.6 1.5
v 0.8 0.6 1.4
v 0.8 0.7 1.5
v 0.8 0.7 1.4
v 0 1.3 1.2
v 0 1.3 1.1
v 0 1.4 1.2
v 0 1.4 1.1
v 0.5 0.6 1.5
v 0.5 0.6 1.4
v 0.5 0.6 1.3
v 0.5 0.7 2
v 0.5 0.7 1.5
v 0.5 0.8 2
v 0.5 0.8 1.4
v 0.5 0.8 1.3
v 0.5 0.8 0.9
v 0.5 0.9 2
v 0.5 0.9 1.3
v 0.5 1 0.9
v 0.5 1 0.6
v 0.5 1.2 2
v 0.5 1.2 1.6
v 0.5 1.3 1.6
v 0.5 1.3 1.3
v 0.5 1.3 1.1
v 0.5 1.4 1.1
v 0.5 1.4 0.7
v 0.5 1.5 0.7
v 0.5 1.5 0.6
v 1.3 0.4 2
v 1.3 0.4 1.3
v 1.3 0.6 1.4
v 1.3 0.6 1.3
v 1.3 0.7 2
v 1.3 0.7 1.4
v -0.7 0.4 2
v -0.7 0.6 2
v -0.7 0.8 2
v -0.7 0.9 2
v -0.7 1.2 2
v -0.3 1.1 2
v -0.3 1.2 2
v 0 1.1 2
v 0 1.2 2
v 0.5 0.7 2
v 0.5 0.8 2
v 0.5 0.9 2
v 0.5 1.2 2
v 1.2 0.6 2
v 1.2 0.7 2
v 1.3 0.4 2
v 1.3 0.7 2
v -0.5 1.2 1.6
v -0.5 1.3 1.6
v -0.3 1.2 1.6
v 0 1.2 1.6
v 0.5 1.2 1.6
v 0.5 1.3 1.6
v -0.5 1.3 1.2
v -0.5 1.4 1.2
v 0 1.3 1.2
v 0 1.4 1.2
v 0 1.3 1.1
v 0 1.4 1.1
v 0.5 1.3 1.1
v 0.5 1.4 1.1
v -0.4 1.4 0.7
v -0.4 1.5 0.7
v 0.5 1.4 0.7
v 0.5 1.5 0.7
v 0.5 0.6 1.5
v 0.5 0.7 1.5
v 0.8 0.6 1.5
v 0.8 0.7 1.5
v 0.8 0.6 1.4
v 0.8 0.7 1.4
v 1.2 0.6 1.4
v 1.2 0.7 1.4
v 1.3 0.6 1.4
v 1.3 0.7 1.4
v -0.7 0.4 1.3
v -0.7 0.8 1.3
v 0.5 0.6 1.3
v 0.5 0.8 1.3
v 1.3 0.4 1.3
v 1.3 0.6 1.3
v -0.7 0.8 0.9
v -0.7 1 0.9
v 0.5 0.8 0.9
v 0.5 1 0.9
v -0.5 1.2 0.7
v -0.5 1.4 0.7
v -0.4 1.2 0.7
v -0.4 1.4 0.7
v -0.7 1 0.6
v -0.7 1.2 0.6
v -0.4 1.2 0.6
v -0.4 1.5 0.6
v 0.5 1 0.6
v 0.5 1.5 0.6
v -0.7 0.4 2
v 1.3 0.4 2
v -0.7 0.4 1.3
v 1.3 0.4 1.3
v -0.7 0.8 1.3
v 0.5 0.8 1.3
v -0.7 0.8 0.9
v 0.5 0.8 0.9
v -0.7 1 0.9
v 0.5 1 0.9
v -0.7 1 0.6
v 0.5 1 0.6
v 0.5 0.6 1.5
v 0.8 0.6 1.5
v 0.5 0.6 1.4
v 0.8 0.6 1.4
v 1.2 0.6 1.4
v 1.3 0.6 1.4
v 0.5 0.6 1.3
v 1.3 0.6 1.3
v 0.5 0.7 2
v 1.2 0.7 2
v 1.3 0.7 2
v 0.5 0.7 1.5
v 0.8 0.7 1.5
v 0.8 0.7 1.4
v 1.2 0.7 1.4
v 1.3 0.7 1.4
v -0.7 1.2 2
v -0.3 1.2 2
v 0 1.2 2
v 0.5 1.2 2
v -0.5 1.2 1.6
v -0.3 1.2 1.6
v 0 1.2 1.6
v 0.5 1.2 1.6
v -0.7 1.2 1.3
v -0.5 1.2 1.3
v -0.5 1.2 0.7
v -0.4 1.2 0.7
v -0.7 1.2 0.6
v -0.4 1.2 0.6
v -0.5 1.3 1.6
v 0.5 1.3 1.6
v -0.5 1.3 1.3
v 0.5 1.3 1.3
v -0.5 1.3 1.2
v 0 1.3 1.2
v 0 1.3 1.1
v 0.5 1.3 1.1
v -0.5 1.4 1.2
v 0 1.4 1.2
v 0 1.4 1.1
v 0.5 1.4 1.1
v -0.5 1.4 0.7
v -0.4 1.4 0.7
v 0.5 1.4 0.7
v -0.4 1.5 0.7
v 0.5 1.5 0.7
v -0.4 1.5 0.6
v 0.5 1.5 0.6

# faces
f 3/4/1 2/4/1 1/4/1
f 4/4/1 2/4/1 3/4/1
f 5/2/1 4/2/1 3/2/1
f 6/4/1 2/4/1 4/4/1
f 6/2/1 4/2/1 5/2/1
f 7/4/1 2/4/1 6/4/1
f 9/4/1 6/4/1 5/4/1
f 9/4/1 8/4/1 7/4/1
f 9/4/1 7/4/1 6/4/1
f 10/4/1 8/4/1 9/4/1
f 11/4/1 8/4/1 10/4/1
f 13/3/1 10/3/1 9/3/1
f 14/4/1 12/4/1 11/4/1
f 14/3/1 10/3/1 13/3/1
f 14/4/1 11/4/1 10/4/1
f 15/4/1 12/4/1 14/4/1
f 19/3/1 17/3/1 16/3/1
f 20/4/1 18/4/1 17/4/1
f 20/3/1 17/3/1 19/3/1
f 21/4/1 18/4/1 20/4/1
f 22/4/1 18/4/1 21/4/1
f 23/4/1 18/4/1 22/4/1
f 26/4/1 25/4/1 24/4/1
f 27/4/1 25/4/1 26/4/1
f 28/4/1 25/4/1 27/4/1
f 31/2/1 30/2/1 29/2/1
f 32/2/1 30/2/1 31/2/1
f 33/4/2 34/4/2 35/4/2
f 35/4/2 34/4/2 36/4/2
f 37/2/2 38/2/2 41/2/2
f 40/2/2 41/2/2 42/2/2
f 38/4/2 39/4/2 43/4/2
f 42/2/2 41/2/2 43/2/2
f 41/2/2 38/2/2 43/2/2
f 43/4/2 39/4/2 44/4/2
f 42/4/2 43/4/2 46/4/2
f 44/4/2 45/4/2 46/4/2
f 43/4/2 44/4/2 46/4/2
f 46/4/2 45/4/2 47/4/2
f 47/4/2 45/4/2 48/4/2
f 46/3/2 47/3/2 50/3/2
f 50/3/2 47/3/2 51/3/2
f 51/3/2 47/3/2 52/3/2
f 48/4/2 49/4/2 53/4/2
f 52/3/2 47/3/2 53/3/2
f 47/4/2 48/4/2 53/4/2
f 53/4/2 49/4/2 54/4/2
f 54/4/2 49/4/2 55/4/2
f 55/4/2 49/4/2 56/4/2
f 56/4/2 49/4/2 57/4/2
f 57/4/2 49/4/2 58/4/2
f 59/4/2 60/4/2 61/4/2
f 61/4/2 60/4/2 62/4/2
f 59/4/2 61/4/2 63/4/2
f 63/4/2 61/4/2 64/4/2
f 70/3/3 69/3/3 68/3/3
f 71/3/3 69/3/3 70/3/3
f 72/3/3 70/3/3 68/3/3
f 72/1/3 71/1/3 70/1/3
f 73/1/3 71/1/3 72/1/3
f 74/2/3 67/2/3 66/2/3
f 75/4/3 68/4/3 67/4/3
f 75/2/3 67/2/3 74/2/3
f 76/3/3 72/3/3 68/3/3
f 76/4/3 68/4/3 75/4/3
f 76/3/3 73/3/3 72/3/3
f 77/3/3 73/3/3 76/3/3
f 78/4/3 66/4/3 65/4/3
f 78/2/3 74/2/3 66/2/3
f 79/2/3 74/2/3 78/2/3
f 80/4/3 78/4/3 65/4/3
f 80/4/3 79/4/3 78/4/3
f 81/4/3 79/4/3 80/4/3
f 84/3/3 83/3/3 82/3/3
f 85/3/3 83/3/3 84/3/3
f 86/3/3 83/3/3 85/3/3
f 87/3/3 83/3/3 86/3/3
f 90/4/3 89/4/3 88/4/3
f 91/4/3 89/4/3 90/4/3
f 94/4/3 93/4/3 92/4/3
f 95/4/3 93/4/3 94/4/3
f 98/4/3 97/4/3 96/4/3
f 99/4/3 97/4/3 98/4/3
f 100/2/4 101/2/4 102/2/4
f 102/2/4 101/2/4 103/2/4
f 104/2/4 105/2/4 106/2/4
f 106/2/4 105/2/4 107/2/4
f 106/4/4 107/4/4 108/4/4
f 108/4/4 107/4/4 109/4/4
f 110/4/4 111/4/4 112/4/4
f 112/4/4 111/4/4 113/4/4
f 110/4/4 112/4/4 114/4/4
f 114/4/4 112/4/4 115/4/4
f 116/4/4 117/4/4 118/4/4
f 118/4/4 117/4/4 119/4/4
f 120/4/4 121/4/4 122/4/4
f 122/4/4 121/4/4 123/4/4
f 124/4/4 125/4/4 126/4/4
f 124/4/4 126/4/4 128/4/4
f 126/4/4 127/4/4 128/4/4
f 128/4/4 127/4/4 129/4/4
f 132/4/5 131/4/5 130/4/5
f 133/4/5 131/4/5 132/4/5
f 136/4/5 135/4/5 134/4/5
f 137/4/5 135/4/5 136/4/5
f 140/4/5 139/4/5 138/4/5
f 141/4/5 139/4/5 140/4/5
f 142/4/6 143/4/6 144/4/6
f 144/4/6 143/4/6 145/4/6
f 144/4/6 145/4/6 148/4/6
f 146/4/6 147/4/6 148/4/6
f 145/4/6 146/4/6 148/4/6
f 148/4/6 147/4/6 149/4/6
f 150/2/6 151/2/6 153/2/6
f 153/2/6 151/2/6 154/2/6
f 154/2/6 151/2/6 155/2/6
f 151/4/6 152/4/6 156/4/6
f 155/2/6 151/2/6 156/2/6
f 156/4/6 152/4/6 157/4/6
f 158/3/6 159/3/6 162/3/6
f 159/1/6 160/1/6 163/1/6
f 162/3/6 159/3/6 163/3/6
f 160/3/6 161/3/6 164/3/6
f 163/1/6 160/1/6 164/1/6
f 164/3/6 161/3/6 165/3/6
f 158/3/6 162/3/6 166/3/6
f 166/3/6 162/3/6 167/3/6
f 166/4/6 167/4/6 168/4/6
f 166/4/6 168/4/6 170/4/6
f 168/4/6 169/4/6 170/4/6
f 170/4/6 169/4/6 171/4/6
f 172/3/6 173/3/6 174/3/6
f 174/3/6 173/3/6 175/3/6
f 174/4/6 175/4/6 176/4/6
f 176/4/6 175/4/6 177/4/6
f 177/4/6 175/4/6 178/4/6
f 178/4/6 175/4/6 179/4/6
f 180/4/6 181/4/6 182/4/6
f 180/4/6 182/4/6 184/4/6
f 182/4/6 183/4/6 184/4/6
f 184/4/6 183/4/6 185/4/6
f 185/4/6 183/4/6 186/4/6
f 187/4/6 188/4/6 189/4/6
f 189/4/6 188/4/6 190/4/6
