# MagicaVoxel @ Ephtracy

# group
o 

# material
mtllib CreateMode.mtl
usemtl palette

# normals
vn -1 0 0
vn 1 0 0
vn 0 0 1
vn 0 0 -1
vn 0 -1 0
vn 0 1 0

# texcoords
vt 0.0449219 0.5
vt 0.994141 0.5

# verts
v -4 -2.23517e-008 2.8
v -4 -2.23517e-008 2.5
v -4 2.1 2.8
v -4 2.1 2.5
v 3.9 -2.23517e-008 2.8
v 3.9 -2.23517e-008 2.5
v 3.9 2.1 2.8
v 3.9 2.1 2.5
v -4 -2.23517e-008 2.8
v -4 2.1 2.8
v -3.9 0.1 2.8
v -3.9 2 2.8
v -3.8 0.5 2.8
v -3.8 1.5 2.8
v -3.6 0.7 2.8
v -3.6 1.3 2.8
v -3.2 0.5 2.8
v -3.2 0.7 2.8
v -3.2 1.3 2.8
v -3.2 1.5 2.8
v -3.1 0.5 2.8
v -3.1 1.5 2.8
v -2.9 0.5 2.8
v -2.9 0.7 2.8
v -2.9 1 2.8
v -2.9 1.3 2.8
v -2.8 0.6 2.8
v -2.8 0.7 2.8
v -2.7 0.5 2.8
v -2.7 0.6 2.8
v -2.7 0.7 2.8
v -2.7 0.8 2.8
v -2.7 1 2.8
v -2.7 1.3 2.8
v -2.5 0.5 2.8
v -2.5 0.7 2.8
v -2.5 0.8 2.8
v -2.5 1.5 2.8
v -2.4 0.5 2.8
v -2.4 1.5 2.8
v -2.2 0.7 2.8
v -2.2 0.9 2.8
v -2.2 1.1 2.8
v -2.2 1.3 2.8
v -1.9 0.9 2.8
v -1.9 1.1 2.8
v -1.8 0.5 2.8
v -1.8 0.7 2.8
v -1.8 1.3 2.8
v -1.8 1.5 2.8
v -1.7 0.5 2.8
v -1.7 1.5 2.8
v -1.5 0.5 2.8
v -1.5 0.9 2.8
v -1.5 1 2.8
v -1.5 1.3 2.8
v -1.3 0.5 2.8
v -1.3 0.9 2.8
v -1.3 1 2.8
v -1.3 1.3 2.8
v -1.1 0.5 2.8
v -1.1 1.5 2.8
v -1 1.3 2.8
v -1 1.5 2.8
v -0.8 0.5 2.8
v -0.8 1.3 2.8
v -0.6 0.5 2.8
v -0.6 1.3 2.8
v -0.4 1.3 2.8
v -0.4 1.5 2.8
v -0.3 0.5 2.8
v -0.3 1.5 2.8
v -0.2 0.7 2.8
v -0.2 0.9 2.8
v -0.2 1.1 2.8
v -0.2 1.3 2.8
v 0.2 0.9 2.8
v 0.2 1.1 2.8
v 0.3 0.5 2.8
v 0.3 0.7 2.8
v 0.3 1.3 2.8
v 0.3 1.5 2.8
v 0.8 0.5 2.8
v 0.8 1.5 2.8
v 1 0.5 2.8
v 1 1.4 2.8
v 1.1 0.5 2.8
v 1.1 1.4 2.8
v 1.3 0.5 2.8
v 1.3 1.4 2.8
v 1.4 0.5 2.8
v 1.4 1.4 2.8
v 1.6 0.5 2.8
v 1.6 1.5 2.8
v 1.7 0.5 2.8
v 1.7 1.5 2.8
v 1.9 0.7 2.8
v 1.9 1.3 2.8
v 2.1 0.7 2.8
v 2.1 1.3 2.8
v 2.3 0.5 2.8
v 2.3 1.5 2.8
v 2.4 0.5 2.8
v 2.4 1.5 2.8
v 2.6 0.7 2.8
v 2.6 1.3 2.8
v 2.8 0.5 2.8
v 2.8 0.6 2.8
v 2.8 0.7 2.8
v 2.8 0.8 2.8
v 2.8 1.2 2.8
v 2.8 1.3 2.8
v 2.8 1.4 2.8
v 2.8 1.5 2.8
v 2.9 0.8 2.8
v 2.9 1.2 2.8
v 3 0.6 2.8
v 3 1.4 2.8
v 3.1 0.5 2.8
v 3.1 1.5 2.8
v 3.3 0.7 2.8
v 3.3 0.9 2.8
v 3.3 1.1 2.8
v 3.3 1.3 2.8
v 3.6 0.9 2.8
v 3.6 1.1 2.8
v 3.7 0.5 2.8
v 3.7 0.7 2.8
v 3.7 1.3 2.8
v 3.7 1.5 2.8
v 3.8 0.1 2.8
v 3.8 2 2.8
v 3.9 -2.23517e-008 2.8
v 3.9 2.1 2.8
v -4 -2.23517e-008 2.5
v -4 2.1 2.5
v -3.9 0.1 2.5
v -3.9 2 2.5
v 3.8 0.1 2.5
v 3.8 2 2.5
v 3.9 -2.23517e-008 2.5
v 3.9 2.1 2.5
v -4 -2.23517e-008 2.8
v 3.9 -2.23517e-008 2.8
v -3.9 -2.23517e-008 2.7
v 3.7 -2.23517e-008 2.7
v -3.9 -2.23517e-008 2.6
v 3.7 -2.23517e-008 2.6
v -4 -2.23517e-008 2.5
v 3.9 -2.23517e-008 2.5
v -4 2.1 2.8
v 3.9 2.1 2.8
v -4 2.1 2.5
v 3.9 2.1 2.5

# faces
f 3/1/1 2/1/1 1/1/1
f 4/1/1 2/1/1 3/1/1
f 5/1/2 6/1/2 7/1/2
f 7/1/2 6/1/2 8/1/2
f 11/1/3 10/1/3 9/1/3
f 12/1/3 10/1/3 11/1/3
f 13/2/3 12/2/3 11/2/3
f 14/2/3 12/2/3 13/2/3
f 15/1/3 14/1/3 13/1/3
f 16/1/3 14/1/3 15/1/3
f 17/2/3 13/2/3 11/2/3
f 17/1/3 15/1/3 13/1/3
f 18/2/3 16/2/3 15/2/3
f 18/1/3 15/1/3 17/1/3
f 19/1/3 14/1/3 16/1/3
f 19/2/3 16/2/3 18/2/3
f 20/2/3 12/2/3 14/2/3
f 20/1/3 14/1/3 19/1/3
f 21/2/3 18/2/3 17/2/3
f 21/2/3 19/2/3 18/2/3
f 21/2/3 20/2/3 19/2/3
f 21/2/3 17/2/3 11/2/3
f 22/2/3 12/2/3 20/2/3
f 22/2/3 20/2/3 21/2/3
f 23/2/3 21/2/3 11/2/3
f 23/1/3 22/1/3 21/1/3
f 24/1/3 22/1/3 23/1/3
f 25/1/3 22/1/3 24/1/3
f 26/1/3 22/1/3 25/1/3
f 27/2/3 24/2/3 23/2/3
f 28/1/3 25/1/3 24/1/3
f 28/2/3 24/2/3 27/2/3
f 29/2/3 23/2/3 11/2/3
f 29/2/3 27/2/3 23/2/3
f 30/1/3 28/1/3 27/1/3
f 30/2/3 27/2/3 29/2/3
f 31/1/3 25/1/3 28/1/3
f 31/1/3 28/1/3 30/1/3
f 32/1/3 25/1/3 31/1/3
f 33/2/3 26/2/3 25/2/3
f 33/1/3 25/1/3 32/1/3
f 34/1/3 22/1/3 26/1/3
f 34/2/3 26/2/3 33/2/3
f 35/1/3 30/1/3 29/1/3
f 35/2/3 29/2/3 11/2/3
f 35/1/3 31/1/3 30/1/3
f 36/2/3 32/2/3 31/2/3
f 36/1/3 31/1/3 35/1/3
f 37/1/3 33/1/3 32/1/3
f 37/2/3 32/2/3 36/2/3
f 37/1/3 34/1/3 33/1/3
f 38/2/3 12/2/3 22/2/3
f 38/1/3 34/1/3 37/1/3
f 38/1/3 22/1/3 34/1/3
f 39/2/3 37/2/3 36/2/3
f 39/2/3 35/2/3 11/2/3
f 39/2/3 38/2/3 37/2/3
f 39/2/3 36/2/3 35/2/3
f 40/2/3 12/2/3 38/2/3
f 40/2/3 38/2/3 39/2/3
f 41/1/3 40/1/3 39/1/3
f 42/1/3 40/1/3 41/1/3
f 43/1/3 40/1/3 42/1/3
f 44/1/3 40/1/3 43/1/3
f 45/2/3 42/2/3 41/2/3
f 45/1/3 43/1/3 42/1/3
f 46/2/3 44/2/3 43/2/3
f 46/1/3 43/1/3 45/1/3
f 47/2/3 39/2/3 11/2/3
f 47/1/3 41/1/3 39/1/3
f 48/2/3 46/2/3 45/2/3
f 48/1/3 41/1/3 47/1/3
f 48/2/3 45/2/3 41/2/3
f 49/2/3 44/2/3 46/2/3
f 49/2/3 46/2/3 48/2/3
f 49/1/3 40/1/3 44/1/3
f 50/2/3 12/2/3 40/2/3
f 50/1/3 40/1/3 49/1/3
f 51/2/3 48/2/3 47/2/3
f 51/2/3 49/2/3 48/2/3
f 51/2/3 50/2/3 49/2/3
f 51/2/3 47/2/3 11/2/3
f 52/2/3 12/2/3 50/2/3
f 52/2/3 50/2/3 51/2/3
f 53/2/3 51/2/3 11/2/3
f 53/1/3 52/1/3 51/1/3
f 54/1/3 52/1/3 53/1/3
f 55/1/3 52/1/3 54/1/3
f 56/1/3 52/1/3 55/1/3
f 57/2/3 53/2/3 11/2/3
f 57/2/3 54/2/3 53/2/3
f 58/1/3 55/1/3 54/1/3
f 58/2/3 54/2/3 57/2/3
f 59/2/3 56/2/3 55/2/3
f 59/1/3 55/1/3 58/1/3
f 60/1/3 52/1/3 56/1/3
f 60/2/3 56/2/3 59/2/3
f 61/1/3 59/1/3 58/1/3
f 61/1/3 58/1/3 57/1/3
f 61/1/3 60/1/3 59/1/3
f 61/2/3 57/2/3 11/2/3
f 62/2/3 12/2/3 52/2/3
f 62/1/3 60/1/3 61/1/3
f 62/1/3 52/1/3 60/1/3
f 63/2/3 62/2/3 61/2/3
f 64/2/3 12/2/3 62/2/3
f 64/2/3 62/2/3 63/2/3
f 65/2/3 61/2/3 11/2/3
f 65/2/3 63/2/3 61/2/3
f 66/1/3 64/1/3 63/1/3
f 66/2/3 63/2/3 65/2/3
f 67/2/3 65/2/3 11/2/3
f 67/1/3 66/1/3 65/1/3
f 68/1/3 64/1/3 66/1/3
f 68/1/3 66/1/3 67/1/3
f 69/2/3 68/2/3 67/2/3
f 69/1/3 64/1/3 68/1/3
f 70/2/3 12/2/3 64/2/3
f 70/1/3 64/1/3 69/1/3
f 71/2/3 69/2/3 67/2/3
f 71/2/3 67/2/3 11/2/3
f 71/2/3 70/2/3 69/2/3
f 72/2/3 12/2/3 70/2/3
f 72/2/3 70/2/3 71/2/3
f 73/1/3 72/1/3 71/1/3
f 74/1/3 72/1/3 73/1/3
f 75/1/3 72/1/3 74/1/3
f 76/1/3 72/1/3 75/1/3
f 77/2/3 74/2/3 73/2/3
f 77/1/3 75/1/3 74/1/3
f 78/2/3 76/2/3 75/2/3
f 78/1/3 75/1/3 77/1/3
f 79/2/3 71/2/3 11/2/3
f 79/1/3 73/1/3 71/1/3
f 80/2/3 78/2/3 77/2/3
f 80/1/3 73/1/3 79/1/3
f 80/2/3 77/2/3 73/2/3
f 81/2/3 76/2/3 78/2/3
f 81/2/3 78/2/3 80/2/3
f 81/1/3 72/1/3 76/1/3
f 82/2/3 12/2/3 72/2/3
f 82/1/3 72/1/3 81/1/3
f 83/2/3 80/2/3 79/2/3
f 83/2/3 81/2/3 80/2/3
f 83/2/3 82/2/3 81/2/3
f 83/2/3 79/2/3 11/2/3
f 84/2/3 12/2/3 82/2/3
f 84/2/3 82/2/3 83/2/3
f 85/2/3 83/2/3 11/2/3
f 85/1/3 84/1/3 83/1/3
f 86/1/3 84/1/3 85/1/3
f 87/2/3 85/2/3 11/2/3
f 87/2/3 86/2/3 85/2/3
f 88/1/3 84/1/3 86/1/3
f 88/2/3 86/2/3 87/2/3
f 89/2/3 87/2/3 11/2/3
f 89/1/3 88/1/3 87/1/3
f 90/1/3 84/1/3 88/1/3
f 90/1/3 88/1/3 89/1/3
f 91/2/3 89/2/3 11/2/3
f 91/2/3 90/2/3 89/2/3
f 92/1/3 84/1/3 90/1/3
f 92/2/3 90/2/3 91/2/3
f 93/2/3 91/2/3 11/2/3
f 93/1/3 92/1/3 91/1/3
f 94/2/3 12/2/3 84/2/3
f 94/1/3 92/1/3 93/1/3
f 94/1/3 84/1/3 92/1/3
f 95/2/3 93/2/3 11/2/3
f 95/2/3 94/2/3 93/2/3
f 96/2/3 12/2/3 94/2/3
f 96/2/3 94/2/3 95/2/3
f 97/1/3 96/1/3 95/1/3
f 98/1/3 96/1/3 97/1/3
f 99/1/3 97/1/3 95/1/3
f 99/2/3 98/2/3 97/2/3
f 100/1/3 96/1/3 98/1/3
f 100/2/3 98/2/3 99/2/3
f 101/2/3 95/2/3 11/2/3
f 101/1/3 99/1/3 95/1/3
f 101/1/3 100/1/3 99/1/3
f 102/1/3 96/1/3 100/1/3
f 102/1/3 100/1/3 101/1/3
f 102/2/3 12/2/3 96/2/3
f 103/2/3 101/2/3 11/2/3
f 103/2/3 102/2/3 101/2/3
f 104/2/3 12/2/3 102/2/3
f 104/2/3 102/2/3 103/2/3
f 105/1/3 104/1/3 103/1/3
f 106/1/3 104/1/3 105/1/3
f 107/2/3 103/2/3 11/2/3
f 107/1/3 105/1/3 103/1/3
f 108/1/3 105/1/3 107/1/3
f 109/2/3 106/2/3 105/2/3
f 109/1/3 105/1/3 108/1/3
f 110/2/3 106/2/3 109/2/3
f 111/2/3 106/2/3 110/2/3
f 112/1/3 104/1/3 106/1/3
f 112/2/3 106/2/3 111/2/3
f 113/1/3 104/1/3 112/1/3
f 114/2/3 12/2/3 104/2/3
f 114/1/3 104/1/3 113/1/3
f 115/2/3 111/2/3 110/2/3
f 115/1/3 109/1/3 108/1/3
f 115/1/3 110/1/3 109/1/3
f 116/1/3 113/1/3 112/1/3
f 116/2/3 111/2/3 115/2/3
f 116/1/3 112/1/3 111/1/3
f 117/1/3 115/1/3 108/1/3
f 117/2/3 108/2/3 107/2/3
f 117/1/3 116/1/3 115/1/3
f 118/1/3 113/1/3 116/1/3
f 118/1/3 116/1/3 117/1/3
f 118/2/3 114/2/3 113/2/3
f 119/2/3 117/2/3 107/2/3
f 119/2/3 107/2/3 11/2/3
f 119/2/3 118/2/3 117/2/3
f 120/2/3 12/2/3 114/2/3
f 120/2/3 118/2/3 119/2/3
f 120/2/3 114/2/3 118/2/3
f 121/1/3 120/1/3 119/1/3
f 122/1/3 120/1/3 121/1/3
f 123/1/3 120/1/3 122/1/3
f 124/1/3 120/1/3 123/1/3
f 125/2/3 122/2/3 121/2/3
f 125/1/3 123/1/3 122/1/3
f 126/2/3 124/2/3 123/2/3
f 126/1/3 123/1/3 125/1/3
f 127/2/3 119/2/3 11/2/3
f 127/1/3 121/1/3 119/1/3
f 128/2/3 126/2/3 125/2/3
f 128/1/3 121/1/3 127/1/3
f 128/2/3 125/2/3 121/2/3
f 129/2/3 124/2/3 126/2/3
f 129/2/3 126/2/3 128/2/3
f 129/1/3 120/1/3 124/1/3
f 130/2/3 12/2/3 120/2/3
f 130/1/3 120/1/3 129/1/3
f 131/1/3 11/1/3 9/1/3
f 131/2/3 128/2/3 127/2/3
f 131/2/3 130/2/3 129/2/3
f 131/2/3 127/2/3 11/2/3
f 131/2/3 129/2/3 128/2/3
f 132/2/3 12/2/3 130/2/3
f 132/2/3 130/2/3 131/2/3
f 132/1/3 10/1/3 12/1/3
f 133/1/3 131/1/3 9/1/3
f 133/1/3 132/1/3 131/1/3
f 134/1/3 10/1/3 132/1/3
f 134/1/3 132/1/3 133/1/3
f 135/1/4 136/1/4 137/1/4
f 137/1/4 136/1/4 138/1/4
f 135/1/4 137/1/4 139/1/4
f 137/2/4 138/2/4 139/2/4
f 138/1/4 136/1/4 140/1/4
f 139/2/4 138/2/4 140/2/4
f 135/1/4 139/1/4 141/1/4
f 139/1/4 140/1/4 141/1/4
f 140/1/4 136/1/4 142/1/4
f 141/1/4 140/1/4 142/1/4
f 145/1/5 144/1/5 143/1/5
f 146/1/5 144/1/5 145/1/5
f 147/1/5 145/1/5 143/1/5
f 147/2/5 146/2/5 145/2/5
f 148/1/5 144/1/5 146/1/5
f 148/2/5 146/2/5 147/2/5
f 149/1/5 147/1/5 143/1/5
f 149/1/5 148/1/5 147/1/5
f 150/1/5 144/1/5 148/1/5
f 150/1/5 148/1/5 149/1/5
f 151/1/6 152/1/6 153/1/6
f 153/1/6 152/1/6 154/1/6
