# MagicaVoxel @ Ephtracy

# group
o 

# material
mtllib Man_A.mtl
usemtl palette

# normals
vn -1 0 0
vn 1 0 0
vn 0 0 1
vn 0 0 -1
vn 0 -1 0
vn 0 1 0

# texcoords
vt 0.0214844 0.5
vt 0.419922 0.5

# verts
v -0.4 1 0.2
v -0.4 1 0.1
v -0.4 1 0
v -0.4 1 -0.1
v -0.4 1.1 0.1
v -0.4 1.1 0
v -0.4 1.2 0.2
v -0.4 1.2 -0.1
v -0.3 0.9 0.2
v -0.3 0.9 0.1
v -0.3 0.9 -0.3
v -0.3 1 0.2
v -0.3 1 0.1
v -0.3 1 0
v -0.3 1 -0.1
v -0.3 1.2 -0.1
v -0.3 1.2 -0.3
v -0.2 0.9 -0.3
v -0.2 0.9 -0.4
v -0.2 1.1 0.2
v -0.2 1.1 0.1
v -0.2 1.2 0.2
v -0.2 1.2 0.1
v -0.2 1.2 0
v -0.2 1.2 -0.2
v -0.2 1.2 -0.3
v -0.2 1.2 -0.4
v -0.2 1.3 0
v -0.2 1.3 -0.2
v -0.1 0.9 -0.4
v -0.1 0.9 -0.5
v -0.1 1.1 -0.4
v -0.1 1.1 -0.5
v -0.1 1.2 0.2
v -0.1 1.2 0.1
v -0.1 1.2 0
v -0.1 1.3 0.2
v -0.1 1.3 0.1
v -0.1 1.3 0
v -0.1 1.3 -0.1
v -0.1 1.4 0.1
v -0.1 1.4 -0.1
v -0.3 1.1 0.2
v -0.3 1.1 0.1
v -0.3 1.2 0.2
v -0.3 1.2 0.1
v -0.2 0.9 0.2
v -0.2 0.9 0.1
v -0.2 1 0.2
v -0.2 1 0.1
v 0 0.9 0.1
v 0 0.9 -0.5
v 0 1 0.2
v 0 1 0.1
v 0 1.1 -0.4
v 0 1.1 -0.5
v 0 1.2 -0.2
v 0 1.2 -0.4
v 0 1.3 0.2
v 0 1.3 0.1
v 0 1.3 -0.1
v 0 1.3 -0.2
v 0 1.4 0.1
v 0 1.4 -0.1
v -0.4 1 0.2
v -0.4 1.2 0.2
v -0.3 0.9 0.2
v -0.3 1 0.2
v -0.3 1.1 0.2
v -0.3 1.2 0.2
v -0.2 0.9 0.2
v -0.2 1 0.2
v -0.2 1.1 0.2
v -0.2 1.2 0.2
v -0.1 1.2 0.2
v -0.1 1.3 0.2
v 0 1 0.2
v 0 1.3 0.2
v -0.3 1.1 0.1
v -0.3 1.2 0.1
v -0.2 0.9 0.1
v -0.2 1 0.1
v -0.2 1.1 0.1
v -0.2 1.2 0.1
v -0.1 1.3 0.1
v -0.1 1.4 0.1
v 0 0.9 0.1
v 0 1 0.1
v 0 1.3 0.1
v 0 1.4 0.1
v -0.2 1.2 0
v -0.2 1.3 0
v -0.1 1.2 0
v -0.1 1.3 0
v -0.4 1 -0.1
v -0.4 1.2 -0.1
v -0.3 1 -0.1
v -0.3 1.2 -0.1
v -0.1 1.3 -0.1
v -0.1 1.4 -0.1
v 0 1.3 -0.1
v 0 1.4 -0.1
v -0.2 1.2 -0.2
v -0.2 1.3 -0.2
v 0 1.2 -0.2
v 0 1.3 -0.2
v -0.3 0.9 -0.3
v -0.3 1.2 -0.3
v -0.2 0.9 -0.3
v -0.2 1.2 -0.3
v -0.2 0.9 -0.4
v -0.2 1.2 -0.4
v -0.1 0.9 -0.4
v -0.1 1.1 -0.4
v 0 1.1 -0.4
v 0 1.2 -0.4
v -0.1 0.9 -0.5
v -0.1 1.1 -0.5
v 0 0.9 -0.5
v 0 1.1 -0.5
v -0.3 0.9 0.2
v -0.2 0.9 0.2
v -0.3 0.9 0.1
v -0.2 0.9 0.1
v 0 0.9 0.1
v -0.3 0.9 -0.3
v -0.2 0.9 -0.3
v -0.2 0.9 -0.4
v -0.1 0.9 -0.4
v -0.1 0.9 -0.5
v 0 0.9 -0.5
v -0.4 1 0.2
v -0.3 1 0.2
v -0.2 1 0.2
v 0 1 0.2
v -0.4 1 0.1
v -0.3 1 0.1
v -0.2 1 0.1
v 0 1 0.1
v -0.4 1 0
v -0.3 1 0
v -0.4 1 -0.1
v -0.3 1 -0.1
v -0.3 1.1 0.2
v -0.2 1.1 0.2
v -0.3 1.1 0.1
v -0.2 1.1 0.1
v -0.1 1.1 -0.4
v 0 1.1 -0.4
v -0.1 1.1 -0.5
v 0 1.1 -0.5
v -0.4 1.2 0.2
v -0.3 1.2 0.2
v -0.2 1.2 0.2
v -0.1 1.2 0.2
v -0.3 1.2 0.1
v -0.2 1.2 0.1
v -0.1 1.2 0.1
v -0.2 1.2 0
v -0.1 1.2 0
v -0.4 1.2 -0.1
v -0.3 1.2 -0.1
v -0.2 1.2 -0.2
v 0 1.2 -0.2
v -0.3 1.2 -0.3
v -0.2 1.2 -0.3
v -0.2 1.2 -0.4
v 0 1.2 -0.4
v -0.1 1.3 0.2
v 0 1.3 0.2
v -0.1 1.3 0.1
v 0 1.3 0.1
v -0.2 1.3 0
v -0.1 1.3 0
v -0.1 1.3 -0.1
v 0 1.3 -0.1
v -0.2 1.3 -0.2
v 0 1.3 -0.2
v -0.1 1.4 0.1
v 0 1.4 0.1
v -0.1 1.4 -0.1
v 0 1.4 -0.1

# faces
f 5/1/1 2/1/1 1/1/1
f 5/2/1 3/2/1 2/2/1
f 6/1/1 4/1/1 3/1/1
f 6/2/1 3/2/1 5/2/1
f 7/1/1 5/1/1 1/1/1
f 7/1/1 6/1/1 5/1/1
f 8/1/1 4/1/1 6/1/1
f 8/1/1 6/1/1 7/1/1
f 12/1/1 10/1/1 9/1/1
f 13/2/1 11/2/1 10/2/1
f 13/1/1 10/1/1 12/1/1
f 14/2/1 11/2/1 13/2/1
f 15/2/1 11/2/1 14/2/1
f 16/2/1 11/2/1 15/2/1
f 17/2/1 11/2/1 16/2/1
f 22/1/1 21/1/1 20/1/1
f 23/1/1 21/1/1 22/1/1
f 26/2/1 19/2/1 18/2/1
f 27/2/1 19/2/1 26/2/1
f 28/2/1 25/2/1 24/2/1
f 29/2/1 25/2/1 28/2/1
f 32/2/1 31/2/1 30/2/1
f 33/2/1 31/2/1 32/2/1
f 37/1/1 35/1/1 34/1/1
f 38/2/1 36/2/1 35/2/1
f 38/1/1 35/1/1 37/1/1
f 39/2/1 36/2/1 38/2/1
f 41/2/1 40/2/1 39/2/1
f 41/2/1 39/2/1 38/2/1
f 42/2/1 40/2/1 41/2/1
f 43/1/2 44/1/2 45/1/2
f 45/1/2 44/1/2 46/1/2
f 47/1/2 48/1/2 49/1/2
f 49/1/2 48/1/2 50/1/2
f 51/2/2 52/2/2 54/2/2
f 54/2/2 52/2/2 55/2/2
f 55/2/2 52/2/2 56/2/2
f 54/2/2 55/2/2 57/2/2
f 57/2/2 55/2/2 58/2/2
f 53/1/2 54/1/2 59/1/2
f 54/2/2 57/2/2 60/2/2
f 59/1/2 54/1/2 60/1/2
f 60/2/2 57/2/2 61/2/2
f 61/2/2 57/2/2 62/2/2
f 60/2/2 61/2/2 63/2/2
f 63/2/2 61/2/2 64/2/2
f 68/1/3 66/1/3 65/1/3
f 69/1/3 66/1/3 68/1/3
f 70/1/3 66/1/3 69/1/3
f 71/1/3 68/1/3 67/1/3
f 71/1/3 69/1/3 68/1/3
f 72/1/3 69/1/3 71/1/3
f 73/1/3 69/1/3 72/1/3
f 75/1/3 74/1/3 73/1/3
f 75/1/3 73/1/3 72/1/3
f 77/1/3 75/1/3 72/1/3
f 77/1/3 76/1/3 75/1/3
f 78/1/3 76/1/3 77/1/3
f 83/2/3 80/2/3 79/2/3
f 84/2/3 80/2/3 83/2/3
f 87/2/3 82/2/3 81/2/3
f 88/2/3 82/2/3 87/2/3
f 89/2/3 86/2/3 85/2/3
f 90/2/3 86/2/3 89/2/3
f 93/2/3 92/2/3 91/2/3
f 94/2/3 92/2/3 93/2/3
f 95/1/4 96/1/4 97/1/4
f 97/1/4 96/1/4 98/1/4
f 99/2/4 100/2/4 101/2/4
f 101/2/4 100/2/4 102/2/4
f 103/2/4 104/2/4 105/2/4
f 105/2/4 104/2/4 106/2/4
f 107/2/4 108/2/4 109/2/4
f 109/2/4 108/2/4 110/2/4
f 111/2/4 112/2/4 113/2/4
f 113/2/4 112/2/4 114/2/4
f 114/2/4 112/2/4 115/2/4
f 115/2/4 112/2/4 116/2/4
f 117/2/4 118/2/4 119/2/4
f 119/2/4 118/2/4 120/2/4
f 123/1/5 122/1/5 121/1/5
f 124/1/5 122/1/5 123/1/5
f 126/2/5 124/2/5 123/2/5
f 126/2/5 125/2/5 124/2/5
f 127/2/5 125/2/5 126/2/5
f 128/2/5 125/2/5 127/2/5
f 129/2/5 125/2/5 128/2/5
f 130/2/5 125/2/5 129/2/5
f 131/2/5 125/2/5 130/2/5
f 136/1/5 133/1/5 132/1/5
f 137/1/5 133/1/5 136/1/5
f 138/1/5 135/1/5 134/1/5
f 139/1/5 135/1/5 138/1/5
f 140/2/5 137/2/5 136/2/5
f 141/2/5 137/2/5 140/2/5
f 142/1/5 141/1/5 140/1/5
f 143/1/5 141/1/5 142/1/5
f 144/1/6 145/1/6 146/1/6
f 146/1/6 145/1/6 147/1/6
f 148/2/6 149/2/6 150/2/6
f 150/2/6 149/2/6 151/2/6
f 152/1/6 153/1/6 156/1/6
f 154/1/6 155/1/6 157/1/6
f 157/1/6 155/1/6 158/1/6
f 156/2/6 157/2/6 159/2/6
f 157/2/6 158/2/6 159/2/6
f 159/2/6 158/2/6 160/2/6
f 152/1/6 156/1/6 161/1/6
f 156/2/6 159/2/6 162/2/6
f 161/1/6 156/1/6 162/1/6
f 162/2/6 159/2/6 163/2/6
f 162/2/6 163/2/6 165/2/6
f 163/2/6 164/2/6 165/2/6
f 165/2/6 164/2/6 166/2/6
f 166/2/6 164/2/6 167/2/6
f 167/2/6 164/2/6 168/2/6
f 169/1/6 170/1/6 171/1/6
f 171/1/6 170/1/6 172/1/6
f 173/2/6 174/2/6 175/2/6
f 173/2/6 175/2/6 177/2/6
f 175/2/6 176/2/6 177/2/6
f 177/2/6 176/2/6 178/2/6
f 179/2/6 180/2/6 181/2/6
f 181/2/6 180/2/6 182/2/6
